{
  "accessors": [
    {
      "bufferView": 2,
      "componentType": 5126,
      "count": 24,
      "max": [
        1.9672874212265015,
        0.37015098333358765,
        2.4409947395324707
      ],
      "min": [
        -1.9672874212265015,
        -0.37015098333358765,
        -2.4158151149749756
      ],
      "type": "VEC3"
    },
    {
      "bufferView": 2,
      "byteOffset": 288,
      "componentType": 5126,
      "count": 24,
      "max": [
        1.0,
        1.0,
        -0.0
      ],
      "min": [
        -0.0,
        -1.0,
        -0.0
      ],
      "type": "VEC3"
    },
    {
      "bufferView": 1,
      "componentType": 5126,
      "count": 24,
      "max": [
        1.0,
        1.0
      ],
      "min": [
        0.44436830282211304,
        0.0
      ],
      "type": "VEC2"
    },
    {
      "bufferView": 0,
      "componentType": 5125,
      "count": 36,
      "type": "SCALAR"
    },
    {
      "bufferView": 2,
      "byteOffset": 576,
      "componentType": 5126,
      "count": 24,
      "max": [
        1.9672874212265015,
        0.37015098333358765,
        2.4409947395324707
      ],
      "min": [
        -1.9672874212265015,
        -0.37015098333358765,
        -2.4158151149749756
      ],
      "type": "VEC3"
    },
    {
      "bufferView": 2,
      "byteOffset": 864,
      "componentType": 5126,
      "count": 24,
      "max": [
        0.0,
        -0.0,
        1.0
      ],
      "min": [
        -1.0,
        -0.0,
        -1.0
      ],
      "type": "VEC3"
    },
    {
      "bufferView": 1,
      "byteOffset": 192,
      "componentType": 5126,
      "count": 24,
      "max": [
        1.0,
        1.0
      ],
      "min": [
        0.0,
        0.0
      ],
      "type": "VEC2"
    },
    {
      "bufferView": 0,
      "byteOffset": 144,
      "componentType": 5125,
      "count": 36,
      "type": "SCALAR"
    },
    {
      "bufferView": 2,
      "byteOffset": 1152,
      "componentType": 5126,
      "count": 2690,
      "max": [
        0.7266755700111389,
        0.22835099697113037,
        3.252976179122925
      ],
      "min": [
        -0.7266757488250732,
        0.10398261994123459,
        -3.2529778480529785
      ],
      "type": "VEC3"
    },
    {
      "bufferView": 2,
      "byteOffset": 33432,
      "componentType": 5126,
      "count": 2690,
      "max": [
        0.998845636844635,
        -0.04800701513886452,
        0.998845636844635
      ],
      "min": [
        -0.998845636844635,
        -1.0,
        -0.998845636844635
      ],
      "type": "VEC3"
    },
    {
      "bufferView": 1,
      "byteOffset": 384,
      "componentType": 5126,
      "count": 2690,
      "max": [
        0.0,
        0.0
      ],
      "min": [
        0.0,
        0.0
      ],
      "type": "VEC2"
    },
    {
      "bufferView": 0,
      "byteOffset": 288,
      "componentType": 5125,
      "count": 13824,
      "type": "SCALAR"
    },
    {
      "bufferView": 2,
      "byteOffset": 65712,
      "componentType": 5126,
      "count": 4994,
      "max": [
        1.0444469451904297,
        0.22085441648960114,
        3.5707480907440186
      ],
      "min": [
        -1.0444469451904297,
        -0.4276907742023468,
        -3.570748805999756
      ],
      "type": "VEC3"
    },
    {
      "bufferView": 2,
      "byteOffset": 125640,
      "componentType": 5126,
      "count": 4994,
      "max": [
        1.0,
        1.0,
        1.0
      ],
      "min": [
        -1.0,
        -3.051936437259428e-05,
        -1.0
      ],
      "type": "VEC3"
    },
    {
      "bufferView": 1,
      "byteOffset": 21904,
      "componentType": 5126,
      "count": 4994,
      "max": [
        0.0,
        0.0
      ],
      "min": [
        0.0,
        0.0
      ],
      "type": "VEC2"
    },
    {
      "bufferView": 0,
      "byteOffset": 55584,
      "componentType": 5125,
      "count": 26112,
      "type": "SCALAR"
    },
    {
      "bufferView": 2,
      "byteOffset": 185568,
      "componentType": 5126,
      "count": 3328,
      "max": [
        1.0444467067718506,
        0.18146641552448273,
        3.5707480907440186
      ],
      "min": [
        -1.0444467067718506,
        0.09045638889074326,
        -3.5707485675811768
      ],
      "type": "VEC3"
    },
    {
      "bufferView": 2,
      "byteOffset": 225504,
      "componentType": 5126,
      "count": 3328,
      "max": [
        0.773079514503479,
        -0.6342761516571045,
        0.773079514503479
      ],
      "min": [
        -0.773079514503479,
        -1.0,
        -0.773079514503479
      ],
      "type": "VEC3"
    },
    {
      "bufferView": 1,
      "byteOffset": 61856,
      "componentType": 5126,
      "count": 3328,
      "max": [
        0.0,
        0.0
      ],
      "min": [
        0.0,
        0.0
      ],
      "type": "VEC2"
    },
    {
      "bufferView": 0,
      "byteOffset": 160032,
      "componentType": 5125,
      "count": 18432,
      "type": "SCALAR"
    },
    {
      "bufferView": 2,
      "byteOffset": 265440,
      "componentType": 5126,
      "count": 65532,
      "max": [
        6.272378921508789,
        0.868914008140564,
        5.763880252838135
      ],
      "min": [
        -6.301090240478516,
        -0.8740072250366211,
        -5.715635776519775
      ],
      "type": "VEC3"
    },
    {
      "bufferView": 2,
      "byteOffset": 1051824,
      "componentType": 5126,
      "count": 65532,
      "max": [
        0.9992170333862305,
        0.9999997019767761,
        1.0
      ],
      "min": [
        -0.9995401501655579,
        -0.9999390840530396,
        -1.0
      ],
      "type": "VEC3"
    },
    {
      "bufferView": 1,
      "byteOffset": 88480,
      "componentType": 5126,
      "count": 65532,
      "max": [
        0.0,
        0.0
      ],
      "min": [
        0.0,
        0.0
      ],
      "type": "VEC2"
    },
    {
      "bufferView": 0,
      "byteOffset": 233760,
      "componentType": 5125,
      "count": 98766,
      "type": "SCALAR"
    },
    {
      "bufferView": 2,
      "byteOffset": 1838208,
      "componentType": 5126,
      "count": 65532,
      "max": [
        6.311153411865234,
        0.8689146041870117,
        5.763880252838135
      ],
      "min": [
        -5.886690616607666,
        -0.8710209131240845,
        -5.715638637542725
      ],
      "type": "VEC3"
    },
    {
      "bufferView": 2,
      "byteOffset": 2624592,
      "componentType": 5126,
      "count": 65532,
      "max": [
        0.9992168545722961,
        0.9999997019767761,
        1.0
      ],
      "min": [
        -0.9999495148658752,
        -0.9998878240585327,
        -0.9999484419822693
      ],
      "type": "VEC3"
    },
    {
      "bufferView": 1,
      "byteOffset": 612736,
      "componentType": 5126,
      "count": 65532,
      "max": [
        0.0,
        0.0
      ],
      "min": [
        0.0,
        0.0
      ],
      "type": "VEC2"
    },
    {
      "bufferView": 0,
      "byteOffset": 628824,
      "componentType": 5125,
      "count": 98298,
      "type": "SCALAR"
    },
    {
      "bufferView": 2,
      "byteOffset": 3410976,
      "componentType": 5126,
      "count": 17040,
      "max": [
        1.8215951919555664,
        0.8689142465591431,
        -4.717570781707764
      ],
      "min": [
        -4.257631301879883,
        0.5709633827209473,
        -5.715637683868408
      ],
      "type": "VEC3"
    },
    {
      "bufferView": 2,
      "byteOffset": 3615456,
      "componentType": 5126,
      "count": 17040,
      "max": [
        0.9992142915725708,
        0.9999997019767761,
        1.0
      ],
      "min": [
        -0.9984188079833984,
        -0.9998878836631775,
        -0.9999489784240723
      ],
      "type": "VEC3"
    },
    {
      "bufferView": 1,
      "byteOffset": 1136992,
      "componentType": 5126,
      "count": 17040,
      "max": [
        0.0,
        0.0
      ],
      "min": [
        0.0,
        0.0
      ],
      "type": "VEC2"
    },
    {
      "bufferView": 0,
      "byteOffset": 1022016,
      "componentType": 5125,
      "count": 25560,
      "type": "SCALAR"
    },
    {
      "bufferView": 2,
      "byteOffset": 3819936,
      "componentType": 5126,
      "count": 1847,
      "max": [
        1.2414482831954956,
        2.5629987716674805,
        10.30329704284668
      ],
      "min": [
        -1.2414482831954956,
        -0.01824873685836792,
        -1.0
      ],
      "type": "VEC3"
    },
    {
      "bufferView": 2,
      "byteOffset": 3842100,
      "componentType": 5126,
      "count": 1847,
      "max": [
        0.9998329877853394,
        0.9998317956924438,
        0.9998329877853394
      ],
      "min": [
        -0.9998329877853394,
        -0.9998317956924438,
        -0.999833345413208
      ],
      "type": "VEC3"
    },
    {
      "bufferView": 1,
      "byteOffset": 1273312,
      "componentType": 5126,
      "count": 1847,
      "max": [
        1.0000001192092896,
        1.0000001192092896
      ],
      "min": [
        0.0,
        0.0
      ],
      "type": "VEC2"
    },
    {
      "bufferView": 0,
      "byteOffset": 1124256,
      "componentType": 5125,
      "count": 8712,
      "type": "SCALAR"
    },
    {
      "bufferView": 2,
      "byteOffset": 3864264,
      "componentType": 5126,
      "count": 3056,
      "max": [
        1.0000001192092896,
        0.19948624074459076,
        1.0000001192092896
      ],
      "min": [
        -1.6453059911727905,
        -1.9550611972808838,
        -1.0000001192092896
      ],
      "type": "VEC3"
    },
    {
      "bufferView": 2,
      "byteOffset": 3900936,
      "componentType": 5126,
      "count": 3056,
      "max": [
        1.0,
        0.9999663829803467,
        1.0
      ],
      "min": [
        -1.0,
        -0.9999666213989258,
        -1.0
      ],
      "type": "VEC3"
    },
    {
      "bufferView": 1,
      "byteOffset": 1288088,
      "componentType": 5126,
      "count": 3056,
      "max": [
        1.0000001192092896,
        1.0000001192092896
      ],
      "min": [
        0.0,
        0.0
      ],
      "type": "VEC2"
    },
    {
      "bufferView": 0,
      "byteOffset": 1159104,
      "componentType": 5125,
      "count": 12672,
      "type": "SCALAR"
    }
  ],
  "asset": {
    "extras": {
      "author": "lukus1 (https://sketchfab.com/lukus1)",
      "license": "CC-BY-4.0 (http://creativecommons.org/licenses/by/4.0/)",
      "source": "https://sketchfab.com/3d-models/fall-guys-door-dash-wall-479f8c51bf204a57a88107360553cf5c",
      "title": "Fall Guys Door Dash Wall"
    },
    "generator": "Sketchfab-12.67.0",
    "version": "2.0"
  },
  "bufferViews": [
    {
      "buffer": 0,
      "byteLength": 1209792,
      "name": "floatBufferViews",
      "target": 34963
    },
    {
      "buffer": 0,
      "byteLength": 1312536,
      "byteOffset": 1209792,
      "byteStride": 8,
      "name": "floatBufferViews",
      "target": 34962
    },
    {
      "buffer": 0,
      "byteLength": 3937608,
      "byteOffset": 2522328,
      "byteStride": 12,
      "name": "floatBufferViews",
      "target": 34962
    }
  ],
  "buffers": [
    {
      "byteLength": 6459936,
      "uri": "scene.bin"
    }
  ],
  "extensionsRequired": [
    "KHR_materials_pbrSpecularGlossiness"
  ],
  "extensionsUsed": [
    "KHR_materials_pbrSpecularGlossiness"
  ],
  "images": [
    {
      "uri": "textures/Material.019_diffuse.jpeg"
    }
  ],
  "materials": [
    {
      "doubleSided": true,
      "extensions": {
        "KHR_materials_pbrSpecularGlossiness": {
          "diffuseFactor": [
            1.0,
            1.0,
            1.0,
            1.0
          ],
          "glossinessFactor": 0.4,
          "specularFactor": [
            0.0,
            0.0,
            0.0
          ]
        }
      },
      "name": "material_0"
    },
    {
      "doubleSided": true,
      "extensions": {
        "KHR_materials_pbrSpecularGlossiness": {
          "diffuseFactor": [
            1.0,
            1.0,
            1.0,
            1.0
          ],
          "diffuseTexture": {
            "index": 0
          },
          "glossinessFactor": 0.5,
          "specularFactor": [
            0.0,
            0.0,
            0.0
          ]
        }
      },
      "name": "Material.019"
    },
    {
      "doubleSided": true,
      "extensions": {
        "KHR_materials_pbrSpecularGlossiness": {
          "diffuseFactor": [
            0.9919669606900798,
            0.0,
            1.0,
            1.0
          ],
          "glossinessFactor": 0.5,
          "specularFactor": [
            0.0,
            0.0,
            0.0
          ]
        }
      },
      "name": "Material.020"
    },
    {
      "doubleSided": true,
      "extensions": {
        "KHR_materials_pbrSpecularGlossiness": {
          "diffuseFactor": [
            0.311101,
            0.0,
            0.0903141,
            1.0
          ],
          "glossinessFactor": 0.5,
          "specularFactor": [
            0.0,
            0.0,
            0.0
          ]
        }
      },
      "name": "Material.017"
    },
    {
      "doubleSided": true,
      "extensions": {
        "KHR_materials_pbrSpecularGlossiness": {
          "diffuseFactor": [
            0.887923,
            0.0822827,
            0.270498,
            1.0
          ],
          "glossinessFactor": 0.5,
          "specularFactor": [
            0.0,
            0.0,
            0.0
          ]
        }
      },
      "name": "Material.015"
    },
    {
      "doubleSided": true,
      "extensions": {
        "KHR_materials_pbrSpecularGlossiness": {
          "diffuseFactor": [
            0.665388,
            0.391573,
            0.558341,
            1.0
          ],
          "glossinessFactor": 0.5,
          "specularFactor": [
            0.0,
            0.0,
            0.0
          ]
        }
      },
      "name": "Material.016"
    },
    {
      "doubleSided": true,
      "extensions": {
        "KHR_materials_pbrSpecularGlossiness": {
          "diffuseFactor": [
            1.0,
            0.0878462,
            0.340747,
            1.0
          ],
          "glossinessFactor": 0.5,
          "specularFactor": [
            0.0,
            0.0,
            0.0
          ]
        }
      },
      "name": "Material.012"
    },
    {
      "doubleSided": true,
      "extensions": {
        "KHR_materials_pbrSpecularGlossiness": {
          "diffuseFactor": [
            1.0,
            0.0761854,
            0.456411,
            1.0
          ],
          "glossinessFactor": 0.5,
          "specularFactor": [
            0.0,
            0.0,
            0.0
          ]
        }
      },
      "name": "Material.018"
    }
  ],
  "meshes": [
    {
      "name": "Object_0",
      "primitives": [
        {
          "attributes": {
            "NORMAL": 1,
            "POSITION": 0,
            "TEXCOORD_0": 2
          },
          "indices": 3,
          "material": 1,
          "mode": 4
        }
      ]
    },
    {
      "name": "Object_1",
      "primitives": [
        {
          "attributes": {
            "NORMAL": 5,
            "POSITION": 4,
            "TEXCOORD_0": 6
          },
          "indices": 7,
          "material": 2,
          "mode": 4
        }
      ]
    },
    {
      "name": "Object_2",
      "primitives": [
        {
          "attributes": {
            "NORMAL": 9,
            "POSITION": 8,
            "TEXCOORD_0": 10
          },
          "indices": 11,
          "material": 3,
          "mode": 4
        }
      ]
    },
    {
      "name": "Object_3",
      "primitives": [
        {
          "attributes": {
            "NORMAL": 13,
            "POSITION": 12,
            "TEXCOORD_0": 14
          },
          "indices": 15,
          "material": 4,
          "mode": 4
        }
      ]
    },
    {
      "name": "Object_4",
      "primitives": [
        {
          "attributes": {
            "NORMAL": 17,
            "POSITION": 16,
            "TEXCOORD_0": 18
          },
          "indices": 19,
          "material": 5,
          "mode": 4
        }
      ]
    },
    {
      "name": "Object_5",
      "primitives": [
        {
          "attributes": {
            "NORMAL": 21,
            "POSITION": 20,
            "TEXCOORD_0": 22
          },
          "indices": 23,
          "material": 0,
          "mode": 4
        }
      ]
    },
    {
      "name": "Object_6",
      "primitives": [
        {
          "attributes": {
            "NORMAL": 25,
            "POSITION": 24,
            "TEXCOORD_0": 26
          },
          "indices": 27,
          "material": 0,
          "mode": 4
        }
      ]
    },
    {
      "name": "Object_7",
      "primitives": [
        {
          "attributes": {
            "NORMAL": 29,
            "POSITION": 28,
            "TEXCOORD_0": 30
          },
          "indices": 31,
          "material": 0,
          "mode": 4
        }
      ]
    },
    {
      "name": "Object_8",
      "primitives": [
        {
          "attributes": {
            "NORMAL": 33,
            "POSITION": 32,
            "TEXCOORD_0": 34
          },
          "indices": 35,
          "material": 6,
          "mode": 4
        }
      ]
    },
    {
      "name": "Object_9",
      "primitives": [
        {
          "attributes": {
            "NORMAL": 37,
            "POSITION": 36,
            "TEXCOORD_0": 38
          },
          "indices": 39,
          "material": 7,
          "mode": 4
        }
      ]
    }
  ],
  "nodes": [
    {
      "children": [
        1
      ],
      "matrix": [
        1.0,
        0.0,
        0.0,
        0.0,
        0.0,
        2.220446049250313e-16,
        -1.0,
        0.0,
        0.0,
        1.0,
        2.220446049250313e-16,
        0.0,
        0.0,
        0.0,
        0.0,
        1.0
      ],
      "name": "Sketchfab_model"
    },
    {
      "children": [
        2
      ],
      "name": "root"
    },
    {
      "children": [
        3
      ],
      "matrix": [
        1.0,
        0.0,
        0.0,
        0.0,
        0.0,
        2.220446049250313e-16,
        1.0,
        0.0,
        0.0,
        -1.0,
        2.220446049250313e-16,
        0.0,
        0.0,
        0.0,
        0.0,
        1.0
      ],
      "name": "GLTF_SceneRootNode"
    },
    {
      "children": [
        4,
        5,
        6,
        10,
        14,
        16
      ],
      "matrix": [
        6.797222991093799e-08,
        -0.8063738346099826,
        -0.0,
        0.0,
        0.8063738346099826,
        6.797222991093799e-08,
        0.0,
        0.0,
        0.0,
        -0.0,
        0.8440122008323669,
        0.0,
        -1.5882022380828857,
        -1.537708044052124,
        -1.492262601852417,
        1.0
      ],
      "name": "Plane.007_6"
    },
    {
      "mesh": 0,
      "name": "Object_4"
    },
    {
      "mesh": 1,
      "name": "Object_5"
    },
    {
      "children": [
        7,
        8,
        9
      ],
      "matrix": [
        0.6005800366401672,
        0.0,
        0.0,
        0.0,
        0.0,
        0.7086040377616882,
        0.0,
        0.0,
        0.0,
        0.0,
        0.573797345161438,
        0.0,
        -3.204536199569702,
        0.44193124771118164,
        -0.10778450965881348,
        1.0
      ],
      "name": "Circle.003_2"
    },
    {
      "mesh": 2,
      "name": "Object_7"
    },
    {
      "mesh": 3,
      "name": "Object_8"
    },
    {
      "mesh": 4,
      "name": "Object_9"
    },
    {
      "children": [
        11,
        12,
        13
      ],
      "matrix": [
        -1.2969258346088954e-07,
        0.0,
        0.3846449553966303,
        0.0,
        -0.0,
        0.4025987386703491,
        0.0,
        0.0,
        -0.4025987386703262,
        0.0,
        -1.3574614663127222e-07,
        0.0,
        -0.33673250675201416,
        0.2242579460144043,
        -0.14966988563537598,
        1.0
      ],
      "name": "Circle.005_3"
    },
    {
      "mesh": 5,
      "name": "Object_11"
    },
    {
      "mesh": 6,
      "name": "Object_12"
    },
    {
      "mesh": 7,
      "name": "Object_13"
    },
    {
      "children": [
        15
      ],
      "matrix": [
        0.0,
        0.7356975674629211,
        0.0,
        0.0,
        -1.7082021236419678,
        0.0,
        0.0,
        0.0,
        0.0,
        0.0,
        0.6593887805938721,
        0.0,
        1.9212638139724731,
        -0.42267167568206787,
        -3.096611738204956,
        1.0
      ],
      "name": "Plane.001_4"
    },
    {
      "mesh": 8,
      "name": "Object_15"
    },
    {
      "children": [
        17
      ],
      "matrix": [
        0.0,
        0.7025089859962463,
        0.0,
        0.0,
        -1.0,
        0.0,
        0.0,
        0.0,
        0.0,
        0.0,
        2.5691444873809814,
        0.0,
        -2.862724542617798,
        -0.2389378547668457,
        -0.002894878387451172,
        1.0
      ],
      "name": "Plane.003_5"
    },
    {
      "mesh": 9,
      "name": "Object_17"
    }
  ],
  "samplers": [
    {
      "magFilter": 9729,
      "minFilter": 9987,
      "wrapS": 10497,
      "wrapT": 10497
    }
  ],
  "scene": 0,
  "scenes": [
    {
      "name": "Sketchfab_Scene",
      "nodes": [
        0
      ]
    }
  ],
  "textures": [
    {
      "sampler": 0,
      "source": 0
    }
  ]
}
