{
  "accessors": [
    {
      "bufferView": 2,
      "componentType": 5126,
      "count": 22168,
      "max": [
        0.18779349327087402,
        3.284482002258301,
        1.7758800983428955
      ],
      "min": [
        -0.18777307868003845,
        -3.225074052810669,
        -15.240519523620605
      ],
      "type": "VEC3"
    },
    {
      "bufferView": 2,
      "byteOffset": 266016,
      "componentType": 5126,
      "count": 22168,
      "max": [
        1.0,
        0.9943373203277588,
        0.9516266584396362
      ],
      "min": [
        -0.947281002998352,
        -0.9943575859069824,
        -0.34835773706436157
      ],
      "type": "VEC3"
    },
    {
      "bufferView": 1,
      "componentType": 5126,
      "count": 22168,
      "max": [
        0.625,
        0.8750000596046448
      ],
      "min": [
        0.0,
        0.0
      ],
      "type": "VEC2"
    },
    {
      "bufferView": 0,
      "componentType": 5125,
      "count": 34200,
      "type": "SCALAR"
    },
    {
      "bufferView": 2,
      "byteOffset": 532032,
      "componentType": 5126,
      "count": 672,
      "max": [
        0.18779349327087402,
        3.1983838081359863,
        1.5988354682922363
      ],
      "min": [
        0.18779319524765015,
        -3.1389758586883545,
        -15.063474655151367
      ],
      "type": "VEC3"
    },
    {
      "bufferView": 2,
      "byteOffset": 540096,
      "componentType": 5126,
      "count": 672,
      "max": [
        -1.0,
        1.3328007142376919e-08,
        0.0
      ],
      "min": [
        -1.0,
        -6.346668746104456e-10,
        0.0
      ],
      "type": "VEC3"
    },
    {
      "bufferView": 1,
      "byteOffset": 177344,
      "componentType": 5126,
      "count": 672,
      "max": [
        3.269745111465454,
        3.211317539215088
      ],
      "min": [
        -2.268556833267212,
        -2.2124669551849365
      ],
      "type": "VEC2"
    },
    {
      "bufferView": 0,
      "byteOffset": 136800,
      "componentType": 5125,
      "count": 1944,
      "type": "SCALAR"
    }
  ],
  "asset": {
    "extras": {
      "author": "KDSpritzy (https://sketchfab.com/KDSpritzy)",
      "license": "CC-BY-4.0 (http://creativecommons.org/licenses/by/4.0/)",
      "source": "https://sketchfab.com/3d-models/fall-guys-floating-platforms-8214465afce04c75890e2027938a3c45",
      "title": "Fall Guys Floating Platforms"
    },
    "generator": "Sketchfab-15.30.0",
    "version": "2.0"
  },
  "bufferViews": [
    {
      "buffer": 0,
      "byteLength": 144576,
      "name": "floatBufferViews",
      "target": 34963
    },
    {
      "buffer": 0,
      "byteLength": 182720,
      "byteOffset": 144576,
      "byteStride": 8,
      "name": "floatBufferViews",
      "target": 34962
    },
    {
      "buffer": 0,
      "byteLength": 548160,
      "byteOffset": 327296,
      "byteStride": 12,
      "name": "floatBufferViews",
      "target": 34962
    }
  ],
  "buffers": [
    {
      "byteLength": 875456,
      "uri": "scene.bin"
    }
  ],
  "images": [
    {
      "uri": "textures/Stripes_baseColor.jpeg"
    }
  ],
  "materials": [
    {
      "doubleSided": true,
      "name": "DPlatform_Yellow",
      "pbrMetallicRoughness": {
        "baseColorFactor": [
          0.8339510484617779,
          0.6871504365639287,
          0.025672793991128363,
          1.0
        ],
        "metallicFactor": 0.0,
        "roughnessFactor": 0.8211145618000169
      }
    },
    {
      "doubleSided": true,
      "name": "Stripes",
      "pbrMetallicRoughness": {
        "baseColorTexture": {
          "index": 0
        },
        "metallicFactor": 0.0,
        "roughnessFactor": 0.8211145618000169
      }
    }
  ],
  "meshes": [
    {
      "name": "Cube.009_DPlatform Yellow_0",
      "primitives": [
        {
          "attributes": {
            "NORMAL": 1,
            "POSITION": 0,
            "TEXCOORD_0": 2
          },
          "indices": 3,
          "material": 0,
          "mode": 4
        }
      ]
    },
    {
      "name": "Cube.009_Stripes_0",
      "primitives": [
        {
          "attributes": {
            "NORMAL": 5,
            "POSITION": 4,
            "TEXCOORD_0": 6
          },
          "indices": 7,
          "material": 1,
          "mode": 4
        }
      ]
    }
  ],
  "nodes": [
    {
      "children": [
        1
      ],
      "matrix": [
        1.0,
        0.0,
        0.0,
        0.0,
        0.0,
        2.220446049250313e-16,
        -1.0,
        0.0,
        0.0,
        1.0,
        2.220446049250313e-16,
        0.0,
        0.0,
        0.0,
        0.0,
        1.0
      ],
      "name": "Sketchfab_model"
    },
    {
      "children": [
        2
      ],
      "matrix": [
        0.009999999776482582,
        0.0,
        0.0,
        0.0,
        0.0,
        0.0,
        0.009999999776482582,
        0.0,
        0.0,
        -0.009999999776482582,
        0.0,
        0.0,
        0.0,
        0.0,
        0.0,
        1.0
      ],
      "name": "DiamondPlatfom.fbx"
    },
    {
      "children": [
        3,
        6,
        9,
        11,
        14,
        17,
        20,
        23
      ],
      "name": "RootNode"
    },
    {
      "children": [
        4,
        5
      ],
      "matrix": [
        -0.6306802889422026,
        102.31545430897411,
        1.135951311584827e-14,
        0.0,
        5.7675782162876645e-06,
        3.555181030708547e-08,
        -131.94931030273426,
        0.0,
        -102.31545430897401,
        -0.6306802889422026,
        -4.472435720054083e-06,
        0.0,
        -687.840576171875,
        -13.760468482971191,
        1.862645149230957e-07,
        1.0
      ],
      "name": "Cube.009"
    },
    {
      "mesh": 0,
      "name": "Cube.009_DPlatform Yellow_0"
    },
    {
      "mesh": 1,
      "name": "Cube.009_Stripes_0"
    },
    {
      "children": [
        7
      ],
      "matrix": [
        180.01275634765625,
        0.0,
        0.0,
        0.0,
        0.0,
        180.01275634765574,
        -1.3590586584071198e-05,
        0.0,
        0.0,
        1.3590586584071198e-05,
        180.01275634765574,
        0.0,
        90.13864135742188,
        1529.3758544921875,
        3.015023946762085,
        1.0
      ],
      "name": "Sun"
    },
    {
      "children": [
        8
      ],
      "matrix": [
        1.0,
        0.0,
        0.0,
        0.0,
        0.0,
        2.220446049250313e-16,
        1.0,
        0.0,
        0.0,
        -1.0,
        2.220446049250313e-16,
        0.0,
        0.0,
        0.0,
        0.0,
        1.0
      ],
      "name": "Object_7"
    },
    {
      "name": "Object_8"
    },
    {
      "children": [
        10
      ],
      "matrix": [
        12.098696712808716,
        -105.17170878547357,
        -145.5923269162069,
        0.0,
        8.709372018489676,
        146.09416182359757,
        -104.81047260643703,
        0.0,
        179.3944280761687,
        0.00029099182567174267,
        14.90743515901722,
        0.0,
        -215.2515869140625,
        1631.574462890625,
        2485.75390625,
        1.0
      ],
      "name": "Camera"
    },
    {
      "name": "Object_10"
    },
    {
      "children": [
        12
      ],
      "matrix": [
        -46.68407807460716,
        171.15577778068092,
        30.51056420403259,
        -0.0,
        143.27138854794882,
        55.770042798298775,
        -93.63551404917277,
        -0.0,
        98.48097468604222,
        -1.8056859145075135e-05,
        150.68540099414878,
        -0.0,
        1539.717529296875,
        598.1043090820313,
        -826.6693115234375,
        1.0
      ],
      "name": "Area.004"
    },
    {
      "children": [
        13
      ],
      "matrix": [
        1.0,
        0.0,
        0.0,
        0.0,
        0.0,
        2.220446049250313e-16,
        1.0,
        0.0,
        0.0,
        -1.0,
        2.220446049250313e-16,
        0.0,
        0.0,
        0.0,
        0.0,
        1.0
      ],
      "name": "Object_12"
    },
    {
      "name": "Object_13"
    },
    {
      "children": [
        15
      ],
      "matrix": [
        -46.68413396387308,
        171.15576300768788,
        -30.51056156044295,
        0.0,
        143.27137074291528,
        55.77008813593686,
        93.63551428913176,
        0.0,
        98.48097409518003,
        1.619856715423589e-05,
        -150.68540138030914,
        0.0,
        1539.717529296875,
        598.1043090820313,
        816.89111328125,
        1.0
      ],
      "name": "Area.003"
    },
    {
      "children": [
        16
      ],
      "matrix": [
        1.0,
        0.0,
        0.0,
        0.0,
        0.0,
        2.220446049250313e-16,
        1.0,
        0.0,
        0.0,
        -1.0,
        2.220446049250313e-16,
        0.0,
        0.0,
        0.0,
        0.0,
        1.0
      ],
      "name": "Object_15"
    },
    {
      "name": "Object_16"
    },
    {
      "children": [
        18
      ],
      "matrix": [
        46.68413408351011,
        171.15576344630733,
        -30.510558916853352,
        -0.0,
        -143.2713327464171,
        55.770082062473485,
        93.63554671005586,
        -0.0,
        -98.48101164840953,
        3.321286211540289e-05,
        -150.68537683725444,
        -0.0,
        -1074.62744140625,
        598.1043090820313,
        816.89111328125,
        1.0
      ],
      "name": "Area.002"
    },
    {
      "children": [
        19
      ],
      "matrix": [
        1.0,
        0.0,
        0.0,
        0.0,
        0.0,
        2.220446049250313e-16,
        1.0,
        0.0,
        0.0,
        -1.0,
        2.220446049250313e-16,
        0.0,
        0.0,
        0.0,
        0.0,
        1.0
      ],
      "name": "Object_18"
    },
    {
      "name": "Object_19"
    },
    {
      "children": [
        21
      ],
      "matrix": [
        46.68407807460718,
        171.15577778068092,
        30.510564204032587,
        0.0,
        -143.27135645876385,
        55.770042798301795,
        -93.6355631487078,
        0.0,
        -98.48102136977697,
        1.1532587778886988e-07,
        150.68537048382032,
        0.0,
        -1074.62744140625,
        598.1043090820313,
        -826.6693115234375,
        1.0
      ],
      "name": "Area.001"
    },
    {
      "children": [
        22
      ],
      "matrix": [
        1.0,
        0.0,
        0.0,
        0.0,
        0.0,
        2.220446049250313e-16,
        1.0,
        0.0,
        0.0,
        -1.0,
        2.220446049250313e-16,
        0.0,
        0.0,
        0.0,
        0.0,
        1.0
      ],
      "name": "Object_21"
    },
    {
      "name": "Object_22"
    },
    {
      "children": [
        24
      ],
      "matrix": [
        13.605525114411568,
        179.49787638798227,
        4.3939537066893157e-13,
        0.0,
        -179.49787638798176,
        13.60552511441153,
        -1.3590587736077851e-05,
        0.0,
        -1.3551713108552798e-05,
        1.027188163198171e-06,
        180.01275634765574,
        0.0,
        -1707.3848876953125,
        260.2902526855469,
        3.015023946762085,
        1.0
      ],
      "name": "Area"
    },
    {
      "children": [
        25
      ],
      "matrix": [
        1.0,
        0.0,
        0.0,
        0.0,
        0.0,
        2.220446049250313e-16,
        1.0,
        0.0,
        0.0,
        -1.0,
        2.220446049250313e-16,
        0.0,
        0.0,
        0.0,
        0.0,
        1.0
      ],
      "name": "Object_24"
    },
    {
      "name": "Object_25"
    }
  ],
  "samplers": [
    {
      "magFilter": 9729,
      "minFilter": 9987,
      "wrapS": 33648,
      "wrapT": 33648
    }
  ],
  "scene": 0,
  "scenes": [
    {
      "name": "Sketchfab_Scene",
      "nodes": [
        0
      ]
    }
  ],
  "textures": [
    {
      "sampler": 0,
      "source": 0
    }
  ]
}
