{
  "accessors": [
    {
      "bufferView": 2,
      "componentType": 5126,
      "count": 102,
      "max": [
        0.9980267286300659,
        1.0,
        0.949999988079071
      ],
      "min": [
        -0.9980267286300659,
        -1.0,
        -0.948348879814148
      ],
      "type": "VEC3"
    },
    {
      "bufferView": 2,
      "byteOffset": 1224,
      "componentType": 5126,
      "count": 102,
      "max": [
        0.9905166029930115,
        0.9924749732017517,
        0.13009998202323914
      ],
      "min": [
        -0.9905166029930115,
        -0.9924749732017517,
        -0.12245011329650879
      ],
      "type": "VEC3"
    },
    {
      "bufferView": 1,
      "componentType": 5126,
      "count": 102,
      "max": [
        0.9999999403953552,
        1.0
      ],
      "min": [
        0.0,
        0.0
      ],
      "type": "VEC2"
    },
    {
      "bufferView": 0,
      "componentType": 5125,
      "count": 300,
      "type": "SCALAR"
    },
    {
      "bufferView": 2,
      "byteOffset": 2448,
      "componentType": 5126,
      "count": 316,
      "max": [
        0.21835817396640778,
        0.21878987550735474,
        1.028507113456726
      ],
      "min": [
        -0.21835817396640778,
        -0.21878987550735474,
        -1.028507113456726
      ],
      "type": "VEC3"
    },
    {
      "bufferView": 2,
      "byteOffset": 6240,
      "componentType": 5126,
      "count": 316,
      "max": [
        0.9761839509010315,
        0.9781138896942139,
        1.0
      ],
      "min": [
        -0.9761840105056763,
        -0.9781138896942139,
        -1.0
      ],
      "type": "VEC3"
    },
    {
      "bufferView": 1,
      "byteOffset": 816,
      "componentType": 5126,
      "count": 316,
      "max": [
        1.6410422325134277,
        0.23996509611606598
      ],
      "min": [
        1.3251948356628418,
        -1.0850740671157837
      ],
      "type": "VEC2"
    },
    {
      "bufferView": 0,
      "byteOffset": 1200,
      "componentType": 5125,
      "count": 888,
      "type": "SCALAR"
    },
    {
      "bufferView": 2,
      "byteOffset": 10032,
      "componentType": 5126,
      "count": 732,
      "max": [
        0.9980267286300659,
        1.0,
        1.0000001192092896
      ],
      "min": [
        -0.9980267286300659,
        -1.0,
        -1.0000001192092896
      ],
      "type": "VEC3"
    },
    {
      "bufferView": 2,
      "byteOffset": 18816,
      "componentType": 5126,
      "count": 732,
      "max": [
        0.9905166029930115,
        0.9924749732017517,
        1.0
      ],
      "min": [
        -0.9905166029930115,
        -0.9924749732017517,
        -1.0
      ],
      "type": "VEC3"
    },
    {
      "bufferView": 1,
      "byteOffset": 3344,
      "componentType": 5126,
      "count": 732,
      "max": [
        2.542647361755371,
        1.7884581089019775
      ],
      "min": [
        -1.5426474809646606,
        -1.0850740671157837
      ],
      "type": "VEC2"
    },
    {
      "bufferView": 0,
      "byteOffset": 4752,
      "componentType": 5125,
      "count": 2100,
      "type": "SCALAR"
    },
    {
      "bufferView": 2,
      "byteOffset": 27600,
      "componentType": 5126,
      "count": 200,
      "max": [
        0.948026716709137,
        0.9499011039733887,
        1.0000001192092896
      ],
      "min": [
        -0.948026716709137,
        -0.9499011039733887,
        -1.0000001192092896
      ],
      "type": "VEC3"
    },
    {
      "bufferView": 2,
      "byteOffset": 30000,
      "componentType": 5126,
      "count": 200,
      "max": [
        0.135128915309906,
        0.1353960931301117,
        1.0
      ],
      "min": [
        -0.135128915309906,
        -0.1353960931301117,
        -1.0
      ],
      "type": "VEC3"
    },
    {
      "bufferView": 1,
      "byteOffset": 9200,
      "componentType": 5126,
      "count": 200,
      "max": [
        1.2938780784606934,
        0.32030364871025085
      ],
      "min": [
        -1.511330485343933,
        -1.0536953210830688
      ],
      "type": "VEC2"
    },
    {
      "bufferView": 0,
      "byteOffset": 13152,
      "componentType": 5125,
      "count": 300,
      "type": "SCALAR"
    },
    {
      "bufferView": 2,
      "byteOffset": 32400,
      "componentType": 5126,
      "count": 1834,
      "max": [
        0.9999999403953552,
        1.0000011920928955,
        20.06951332092285
      ],
      "min": [
        -1.0000016689300537,
        -1.0000004768371582,
        -1.2188751697540283
      ],
      "type": "VEC3"
    },
    {
      "bufferView": 2,
      "byteOffset": 54408,
      "componentType": 5126,
      "count": 1834,
      "max": [
        0.9914968013763428,
        0.9914960861206055,
        0.9908985495567322
      ],
      "min": [
        -0.9914968013763428,
        -0.9914963245391846,
        -0.9908984303474426
      ],
      "type": "VEC3"
    },
    {
      "bufferView": 1,
      "byteOffset": 10800,
      "componentType": 5126,
      "count": 1834,
      "max": [
        1.0,
        1.0
      ],
      "min": [
        2.7939677238464355e-07,
        0.01001304853707552
      ],
      "type": "VEC2"
    },
    {
      "bufferView": 0,
      "byteOffset": 14352,
      "componentType": 5125,
      "count": 5736,
      "type": "SCALAR"
    }
  ],
  "asset": {
    "extras": {
      "author": "KDSpritzy (https://sketchfab.com/KDSpritzy)",
      "license": "CC-BY-4.0 (http://creativecommons.org/licenses/by/4.0/)",
      "source": "https://sketchfab.com/3d-models/fall-guys-roller-267cf105c92f474aa6f727b5c6199673",
      "title": "Fall Guys Roller"
    },
    "generator": "Sketchfab-15.30.0",
    "version": "2.0"
  },
  "bufferViews": [
    {
      "buffer": 0,
      "byteLength": 37296,
      "name": "floatBufferViews",
      "target": 34963
    },
    {
      "buffer": 0,
      "byteLength": 25472,
      "byteOffset": 37296,
      "byteStride": 8,
      "name": "floatBufferViews",
      "target": 34962
    },
    {
      "buffer": 0,
      "byteLength": 76416,
      "byteOffset": 62768,
      "byteStride": 12,
      "name": "floatBufferViews",
      "target": 34962
    }
  ],
  "buffers": [
    {
      "byteLength": 139184,
      "uri": "scene.bin"
    }
  ],
  "extensionsUsed": [
    "KHR_materials_specular"
  ],
  "images": [
    {
      "uri": "textures/Roller_Ziggy_baseColor.jpeg"
    }
  ],
  "materials": [
    {
      "doubleSided": true,
      "name": "Roller_Ziggy",
      "pbrMetallicRoughness": {
        "baseColorTexture": {
          "index": 0
        },
        "metallicFactor": 0.0,
        "roughnessFactor": 0.8211145618000169
      }
    },
    {
      "doubleSided": true,
      "name": "Roller_Black.001",
      "pbrMetallicRoughness": {
        "baseColorFactor": [
          0.0,
          0.0,
          0.0,
          1.0
        ],
        "metallicFactor": 0.0,
        "roughnessFactor": 0.8211145618000169
      }
    },
    {
      "doubleSided": true,
      "name": "Roller_Yellow",
      "pbrMetallicRoughness": {
        "baseColorFactor": [
          1.0,
          0.8307698767746549,
          0.03954623527673283,
          1.0
        ],
        "metallicFactor": 0.0,
        "roughnessFactor": 0.8211145618000169
      }
    },
    {
      "doubleSided": true,
      "name": "Roller_Light_Yellow",
      "pbrMetallicRoughness": {
        "baseColorFactor": [
          0.8801484857505558,
          0.7261035292450755,
          0.02681484845347646,
          1.0
        ],
        "metallicFactor": 0.0,
        "roughnessFactor": 0.8211145618000169
      }
    },
    {
      "doubleSided": true,
      "extensions": {
        "KHR_materials_specular": {
          "specularColorFactor": [
            1.0,
            1.0,
            1.0
          ],
          "specularFactor": 1.0
        }
      },
      "name": "Roller_Silver",
      "pbrMetallicRoughness": {
        "baseColorFactor": [
          0.24045210445369325,
          0.24045210445369325,
          0.24045210445369325,
          1.0
        ],
        "roughnessFactor": 0.42870637359415
      }
    }
  ],
  "meshes": [
    {
      "name": "R. Roller_Roller Ziggy_0",
      "primitives": [
        {
          "attributes": {
            "NORMAL": 1,
            "POSITION": 0,
            "TEXCOORD_0": 2
          },
          "indices": 3,
          "material": 0,
          "mode": 4
        }
      ]
    },
    {
      "name": "R. Roller_Roller Black.001_0",
      "primitives": [
        {
          "attributes": {
            "NORMAL": 5,
            "POSITION": 4,
            "TEXCOORD_0": 6
          },
          "indices": 7,
          "material": 1,
          "mode": 4
        }
      ]
    },
    {
      "name": "R. Roller_Roller Yellow_0",
      "primitives": [
        {
          "attributes": {
            "NORMAL": 9,
            "POSITION": 8,
            "TEXCOORD_0": 10
          },
          "indices": 11,
          "material": 2,
          "mode": 4
        }
      ]
    },
    {
      "name": "R. Roller_Roller Light Yellow_0",
      "primitives": [
        {
          "attributes": {
            "NORMAL": 13,
            "POSITION": 12,
            "TEXCOORD_0": 14
          },
          "indices": 15,
          "material": 3,
          "mode": 4
        }
      ]
    },
    {
      "name": "R. Left Pole_Roller Silver_0",
      "primitives": [
        {
          "attributes": {
            "NORMAL": 17,
            "POSITION": 16,
            "TEXCOORD_0": 18
          },
          "indices": 19,
          "material": 4,
          "mode": 4
        }
      ]
    }
  ],
  "nodes": [
    {
      "children": [
        1
      ],
      "matrix": [
        1.0,
        0.0,
        0.0,
        0.0,
        0.0,
        2.220446049250313e-16,
        -1.0,
        0.0,
        0.0,
        1.0,
        2.220446049250313e-16,
        0.0,
        0.0,
        0.0,
        0.0,
        1.0
      ],
      "name": "Sketchfab_model"
    },
    {
      "children": [
        2
      ],
      "matrix": [
        0.009999999776482582,
        0.0,
        0.0,
        0.0,
        0.0,
        0.0,
        0.009999999776482582,
        0.0,
        0.0,
        -0.009999999776482582,
        0.0,
        0.0,
        0.0,
        0.0,
        0.0,
        1.0
      ],
      "name": "Roller.fbx"
    },
    {
      "children": [
        3,
        8
      ],
      "name": "RootNode"
    },
    {
      "children": [
        4,
        5,
        6,
        7
      ],
      "matrix": [
        -4.371139006309477e-06,
        -99.99999999999991,
        -1.1102230246251565e-14,
        0.0,
        -4.371139011860592e-06,
        1.9984014443252818e-13,
        -99.99999999999991,
        0.0,
        276.0356445312495,
        -1.2065901744746297e-05,
        -1.2065901729423241e-05,
        0.0,
        0.0,
        0.0,
        0.0,
        1.0
      ],
      "name": "R. Roller"
    },
    {
      "mesh": 0,
      "name": "R. Roller_Roller Ziggy_0"
    },
    {
      "mesh": 1,
      "name": "R. Roller_Roller Black.001_0"
    },
    {
      "mesh": 2,
      "name": "R. Roller_Roller Yellow_0"
    },
    {
      "mesh": 3,
      "name": "R. Roller_Roller Light Yellow_0"
    },
    {
      "children": [
        9
      ],
      "matrix": [
        1.258535014134968e-06,
        1.1031149433039646e-22,
        -16.669801712036083,
        0.0,
        7.28660293743803e-07,
        16.669801712036115,
        5.501232170463077e-14,
        0.0,
        32.028751373290895,
        -1.4000214151952803e-06,
        2.4181034518968255e-06,
        0.0,
        -300.5321044921875,
        0.14991462230682373,
        -0.47408342361450195,
        1.0
      ],
      "name": "R. Left Pole"
    },
    {
      "mesh": 4,
      "name": "R. Left Pole_Roller Silver_0"
    }
  ],
  "samplers": [
    {
      "magFilter": 9729,
      "minFilter": 9987,
      "wrapS": 33071,
      "wrapT": 33071
    }
  ],
  "scene": 0,
  "scenes": [
    {
      "name": "Sketchfab_Scene",
      "nodes": [
        0
      ]
    }
  ],
  "textures": [
    {
      "sampler": 0,
      "source": 0
    }
  ]
}
