{
  "accessors": [
    {
      "bufferView": 2,
      "componentType": 5126,
      "count": 917,
      "max": [
        1.0,
        0.9999995231628418,
        1.75
      ],
      "min": [
        -1.0,
        -1.0000009536743164,
        -1.75
      ],
      "type": "VEC3"
    },
    {
      "bufferView": 2,
      "byteOffset": 11004,
      "componentType": 5126,
      "count": 917,
      "max": [
        0.9914963245391846,
        0.9914960861206055,
        0.9908971190452576
      ],
      "min": [
        -0.9914963245391846,
        -0.991496205329895,
        -0.9908970594406128
      ],
      "type": "VEC3"
    },
    {
      "bufferView": 1,
      "componentType": 5126,
      "count": 917,
      "max": [
        1.0,
        1.0
      ],
      "min": [
        2.7939677238464355e-07,
        0.01001304853707552
      ],
      "type": "VEC2"
    },
    {
      "bufferView": 0,
      "componentType": 5125,
      "count": 2868,
      "type": "SCALAR"
    },
    {
      "bufferView": 2,
      "byteOffset": 22008,
      "componentType": 5126,
      "count": 338,
      "max": [
        1.0,
        1.000001311302185,
        1.0
      ],
      "min": [
        -1.0,
        -1.000001311302185,
        -1.0
      ],
      "type": "VEC3"
    },
    {
      "bufferView": 2,
      "byteOffset": 26064,
      "componentType": 5126,
      "count": 338,
      "max": [
        1.0,
        1.0,
        1.0
      ],
      "min": [
        -1.0,
        -1.0,
        -1.0
      ],
      "type": "VEC3"
    },
    {
      "bufferView": 1,
      "byteOffset": 7336,
      "componentType": 5126,
      "count": 338,
      "max": [
        0.875,
        1.0
      ],
      "min": [
        0.125,
        0.0
      ],
      "type": "VEC2"
    },
    {
      "bufferView": 0,
      "byteOffset": 11472,
      "componentType": 5125,
      "count": 654,
      "type": "SCALAR"
    },
    {
      "bufferView": 2,
      "byteOffset": 30120,
      "componentType": 5126,
      "count": 74,
      "max": [
        1.0,
        1.000001311302185,
        0.8757629990577698
      ],
      "min": [
        -1.0,
        0.8142528533935547,
        -1.0
      ],
      "type": "VEC3"
    },
    {
      "bufferView": 2,
      "byteOffset": 31008,
      "componentType": 5126,
      "count": 74,
      "max": [
        1.0,
        1.0,
        0.0
      ],
      "min": [
        -1.0,
        -0.9970089197158813,
        -0.9807851910591125
      ],
      "type": "VEC3"
    },
    {
      "bufferView": 1,
      "byteOffset": 10040,
      "componentType": 5126,
      "count": 74,
      "max": [
        0.6094703674316406,
        0.5327121019363403
      ],
      "min": [
        0.125,
        0.2134183943271637
      ],
      "type": "VEC2"
    },
    {
      "bufferView": 0,
      "byteOffset": 14088,
      "componentType": 5125,
      "count": 114,
      "type": "SCALAR"
    },
    {
      "bufferView": 2,
      "byteOffset": 31896,
      "componentType": 5126,
      "count": 19559,
      "max": [
        1.1550698280334473,
        0.8283485770225525,
        0.6613645553588867
      ],
      "min": [
        -1.0742032527923584,
        -0.7678557634353638,
        -0.8265851140022278
      ],
      "type": "VEC3"
    },
    {
      "bufferView": 2,
      "byteOffset": 266604,
      "componentType": 5126,
      "count": 19559,
      "max": [
        0.9912226796150208,
        1.0,
        1.0
      ],
      "min": [
        -1.0,
        -1.0,
        -1.0
      ],
      "type": "VEC3"
    },
    {
      "bufferView": 1,
      "byteOffset": 10632,
      "componentType": 5126,
      "count": 19559,
      "max": [
        1.0,
        1.0000001192092896
      ],
      "min": [
        2.7939677238464355e-07,
        0.0
      ],
      "type": "VEC2"
    },
    {
      "bufferView": 0,
      "byteOffset": 14544,
      "componentType": 5125,
      "count": 57540,
      "type": "SCALAR"
    },
    {
      "bufferView": 2,
      "byteOffset": 501312,
      "componentType": 5126,
      "count": 1562,
      "max": [
        1.0,
        1.0000033378601074,
        1.75
      ],
      "min": [
        -1.0,
        -0.9999971389770508,
        -1.75
      ],
      "type": "VEC3"
    },
    {
      "bufferView": 2,
      "byteOffset": 520056,
      "componentType": 5126,
      "count": 1562,
      "max": [
        0.9914963245391846,
        0.9914962649345398,
        0.9999982118606567
      ],
      "min": [
        -0.9914963245391846,
        -0.9914963245391846,
        -0.9999980330467224
      ],
      "type": "VEC3"
    },
    {
      "bufferView": 1,
      "byteOffset": 167104,
      "componentType": 5126,
      "count": 1562,
      "max": [
        1.0,
        1.0
      ],
      "min": [
        2.7939677238464355e-07,
        0.01001304853707552
      ],
      "type": "VEC2"
    },
    {
      "bufferView": 0,
      "byteOffset": 244704,
      "componentType": 5125,
      "count": 4680,
      "type": "SCALAR"
    },
    {
      "bufferView": 2,
      "byteOffset": 538800,
      "componentType": 5126,
      "count": 2159,
      "max": [
        1.0,
        0.9999985694885254,
        1.75
      ],
      "min": [
        -1.0,
        -1.0000019073486328,
        -1.75
      ],
      "type": "VEC3"
    },
    {
      "bufferView": 2,
      "byteOffset": 564708,
      "componentType": 5126,
      "count": 2159,
      "max": [
        0.9914963245391846,
        0.9998933672904968,
        0.9999982118606567
      ],
      "min": [
        -0.9914963245391846,
        -0.9914961457252502,
        -1.0
      ],
      "type": "VEC3"
    },
    {
      "bufferView": 1,
      "byteOffset": 179600,
      "componentType": 5126,
      "count": 2159,
      "max": [
        1.0,
        1.0
      ],
      "min": [
        2.7939677238464355e-07,
        0.01001304853707552
      ],
      "type": "VEC2"
    },
    {
      "bufferView": 0,
      "byteOffset": 263424,
      "componentType": 5125,
      "count": 6081,
      "type": "SCALAR"
    },
    {
      "bufferView": 2,
      "byteOffset": 590616,
      "componentType": 5126,
      "count": 1136,
      "max": [
        1.0,
        1.0,
        1.750000238418579
      ],
      "min": [
        -1.0,
        -1.0000004768371582,
        -1.750000238418579
      ],
      "type": "VEC3"
    },
    {
      "bufferView": 2,
      "byteOffset": 604248,
      "componentType": 5126,
      "count": 1136,
      "max": [
        0.9914962649345398,
        0.9914961457252502,
        0.9908971190452576
      ],
      "min": [
        -0.9914962649345398,
        -0.991496205329895,
        -0.999956488609314
      ],
      "type": "VEC3"
    },
    {
      "bufferView": 1,
      "byteOffset": 196872,
      "componentType": 5126,
      "count": 1136,
      "max": [
        1.0,
        1.0
      ],
      "min": [
        2.7939677238464355e-07,
        0.01001304853707552
      ],
      "type": "VEC2"
    },
    {
      "bufferView": 0,
      "byteOffset": 287748,
      "componentType": 5125,
      "count": 3264,
      "type": "SCALAR"
    },
    {
      "bufferView": 2,
      "byteOffset": 617880,
      "componentType": 5126,
      "count": 1136,
      "max": [
        1.0,
        1.0,
        1.750000238418579
      ],
      "min": [
        -1.0,
        -1.0000004768371582,
        -1.750000238418579
      ],
      "type": "VEC3"
    },
    {
      "bufferView": 2,
      "byteOffset": 631512,
      "componentType": 5126,
      "count": 1136,
      "max": [
        0.9914962649345398,
        0.9914961457252502,
        0.9908971190452576
      ],
      "min": [
        -0.9914962649345398,
        -0.991496205329895,
        -0.999956488609314
      ],
      "type": "VEC3"
    },
    {
      "bufferView": 1,
      "byteOffset": 205960,
      "componentType": 5126,
      "count": 1136,
      "max": [
        1.0,
        1.0
      ],
      "min": [
        2.7939677238464355e-07,
        0.01001304853707552
      ],
      "type": "VEC2"
    },
    {
      "bufferView": 0,
      "byteOffset": 300804,
      "componentType": 5125,
      "count": 3264,
      "type": "SCALAR"
    },
    {
      "bufferView": 2,
      "byteOffset": 645144,
      "componentType": 5126,
      "count": 338,
      "max": [
        1.0,
        1.000001311302185,
        1.0
      ],
      "min": [
        -1.0,
        -1.000001311302185,
        -1.0
      ],
      "type": "VEC3"
    },
    {
      "bufferView": 2,
      "byteOffset": 649200,
      "componentType": 5126,
      "count": 338,
      "max": [
        1.0,
        1.0,
        1.0
      ],
      "min": [
        -1.0,
        -1.0,
        -1.0
      ],
      "type": "VEC3"
    },
    {
      "bufferView": 1,
      "byteOffset": 215048,
      "componentType": 5126,
      "count": 338,
      "max": [
        0.875,
        1.0
      ],
      "min": [
        0.125,
        0.0
      ],
      "type": "VEC2"
    },
    {
      "bufferView": 0,
      "byteOffset": 313860,
      "componentType": 5125,
      "count": 654,
      "type": "SCALAR"
    },
    {
      "bufferView": 2,
      "byteOffset": 653256,
      "componentType": 5126,
      "count": 74,
      "max": [
        1.0,
        1.000001311302185,
        0.8757629990577698
      ],
      "min": [
        -1.0,
        0.8142528533935547,
        -1.0
      ],
      "type": "VEC3"
    },
    {
      "bufferView": 2,
      "byteOffset": 654144,
      "componentType": 5126,
      "count": 74,
      "max": [
        1.0,
        1.0,
        0.0
      ],
      "min": [
        -1.0,
        -0.9970089197158813,
        -0.9807851910591125
      ],
      "type": "VEC3"
    },
    {
      "bufferView": 1,
      "byteOffset": 217752,
      "componentType": 5126,
      "count": 74,
      "max": [
        0.6094703674316406,
        0.5327121019363403
      ],
      "min": [
        0.125,
        0.2134183943271637
      ],
      "type": "VEC2"
    },
    {
      "bufferView": 0,
      "byteOffset": 316476,
      "componentType": 5125,
      "count": 114,
      "type": "SCALAR"
    },
    {
      "bufferView": 2,
      "byteOffset": 655032,
      "componentType": 5126,
      "count": 19559,
      "max": [
        1.1550698280334473,
        0.8283485770225525,
        0.6613645553588867
      ],
      "min": [
        -1.0742032527923584,
        -0.7678557634353638,
        -0.8265851140022278
      ],
      "type": "VEC3"
    },
    {
      "bufferView": 2,
      "byteOffset": 889740,
      "componentType": 5126,
      "count": 19559,
      "max": [
        0.9912226796150208,
        1.0,
        1.0
      ],
      "min": [
        -1.0,
        -1.0,
        -1.0
      ],
      "type": "VEC3"
    },
    {
      "bufferView": 1,
      "byteOffset": 218344,
      "componentType": 5126,
      "count": 19559,
      "max": [
        1.0,
        1.0000001192092896
      ],
      "min": [
        2.7939677238464355e-07,
        0.0
      ],
      "type": "VEC2"
    },
    {
      "bufferView": 0,
      "byteOffset": 316932,
      "componentType": 5125,
      "count": 57540,
      "type": "SCALAR"
    }
  ],
  "asset": {
    "extras": {
      "author": "KDSpritzy (https://sketchfab.com/KDSpritzy)",
      "license": "CC-BY-4.0 (http://creativecommons.org/licenses/by/4.0/)",
      "source": "https://sketchfab.com/3d-models/fall-guys-spinning-wall-955470d959a34e76be52a7fa3c681910",
      "title": "Fall Guys Spinning Wall"
    },
    "generator": "Sketchfab-15.30.0",
    "version": "2.0"
  },
  "bufferViews": [
    {
      "buffer": 0,
      "byteLength": 547092,
      "name": "floatBufferViews",
      "target": 34963
    },
    {
      "buffer": 0,
      "byteLength": 374816,
      "byteOffset": 547092,
      "byteStride": 8,
      "name": "floatBufferViews",
      "target": 34962
    },
    {
      "buffer": 0,
      "byteLength": 1124448,
      "byteOffset": 921908,
      "byteStride": 12,
      "name": "floatBufferViews",
      "target": 34962
    }
  ],
  "buffers": [
    {
      "byteLength": 2046356,
      "uri": "scene.bin"
    }
  ],
  "materials": [
    {
      "doubleSided": true,
      "name": "Fan_Dark_Pink",
      "pbrMetallicRoughness": {
        "baseColorFactor": [
          0.5016738129291036,
          0.024998992480471854,
          0.49703383657793065,
          1.0
        ],
        "metallicFactor": 0.0,
        "roughnessFactor": 0.8211145618000169
      }
    },
    {
      "doubleSided": true,
      "name": "Fan_Light_Pink",
      "pbrMetallicRoughness": {
        "baseColorFactor": [
          0.8990353580346825,
          0.11350154457747685,
          0.8595539759886239,
          1.0
        ],
        "metallicFactor": 0.0,
        "roughnessFactor": 0.8211145618000169
      }
    },
    {
      "doubleSided": true,
      "name": "SW_White",
      "pbrMetallicRoughness": {
        "baseColorFactor": [
          0.8,
          0.8,
          0.8,
          1.0
        ],
        "metallicFactor": 0.0,
        "roughnessFactor": 0.8211145618000169
      }
    }
  ],
  "meshes": [
    {
      "name": "SW. Frame_Fan Dark Pink_0",
      "primitives": [
        {
          "attributes": {
            "NORMAL": 1,
            "POSITION": 0,
            "TEXCOORD_0": 2
          },
          "indices": 3,
          "material": 0,
          "mode": 4
        }
      ]
    },
    {
      "name": "SW. Walls 2.001_Fan Light Pink_0",
      "primitives": [
        {
          "attributes": {
            "NORMAL": 5,
            "POSITION": 4,
            "TEXCOORD_0": 6
          },
          "indices": 7,
          "material": 1,
          "mode": 4
        }
      ]
    },
    {
      "name": "SW. Walls 2.001_SW White_0",
      "primitives": [
        {
          "attributes": {
            "NORMAL": 9,
            "POSITION": 8,
            "TEXCOORD_0": 10
          },
          "indices": 11,
          "material": 2,
          "mode": 4
        }
      ]
    },
    {
      "name": "SW. Walls 2.001_Fan Dark Pink_0",
      "primitives": [
        {
          "attributes": {
            "NORMAL": 13,
            "POSITION": 12,
            "TEXCOORD_0": 14
          },
          "indices": 15,
          "material": 0,
          "mode": 4
        }
      ]
    },
    {
      "name": "SW. Frame.005_Fan Dark Pink_0",
      "primitives": [
        {
          "attributes": {
            "NORMAL": 17,
            "POSITION": 16,
            "TEXCOORD_0": 18
          },
          "indices": 19,
          "material": 0,
          "mode": 4
        }
      ]
    },
    {
      "name": "SW. Frame.010_Fan Dark Pink_0",
      "primitives": [
        {
          "attributes": {
            "NORMAL": 21,
            "POSITION": 20,
            "TEXCOORD_0": 22
          },
          "indices": 23,
          "material": 0,
          "mode": 4
        }
      ]
    },
    {
      "name": "SW. Frame.011_Fan Dark Pink_0",
      "primitives": [
        {
          "attributes": {
            "NORMAL": 25,
            "POSITION": 24,
            "TEXCOORD_0": 26
          },
          "indices": 27,
          "material": 0,
          "mode": 4
        }
      ]
    },
    {
      "name": "SW. Frame.012_Fan Dark Pink_0",
      "primitives": [
        {
          "attributes": {
            "NORMAL": 29,
            "POSITION": 28,
            "TEXCOORD_0": 30
          },
          "indices": 31,
          "material": 0,
          "mode": 4
        }
      ]
    },
    {
      "name": "SW. Walls 2.002_Fan Light Pink_0",
      "primitives": [
        {
          "attributes": {
            "NORMAL": 33,
            "POSITION": 32,
            "TEXCOORD_0": 34
          },
          "indices": 35,
          "material": 1,
          "mode": 4
        }
      ]
    },
    {
      "name": "SW. Walls 2.002_SW White_0",
      "primitives": [
        {
          "attributes": {
            "NORMAL": 37,
            "POSITION": 36,
            "TEXCOORD_0": 38
          },
          "indices": 39,
          "material": 2,
          "mode": 4
        }
      ]
    },
    {
      "name": "SW. Walls 2.002_Fan Dark Pink_0",
      "primitives": [
        {
          "attributes": {
            "NORMAL": 41,
            "POSITION": 40,
            "TEXCOORD_0": 42
          },
          "indices": 43,
          "material": 0,
          "mode": 4
        }
      ]
    }
  ],
  "nodes": [
    {
      "children": [
        1
      ],
      "matrix": [
        1.0,
        0.0,
        0.0,
        0.0,
        0.0,
        2.220446049250313e-16,
        -1.0,
        0.0,
        0.0,
        1.0,
        2.220446049250313e-16,
        0.0,
        0.0,
        0.0,
        0.0,
        1.0
      ],
      "name": "Sketchfab_model"
    },
    {
      "children": [
        2
      ],
      "matrix": [
        0.009999999776482582,
        0.0,
        0.0,
        0.0,
        0.0,
        0.0,
        0.009999999776482582,
        0.0,
        0.0,
        -0.009999999776482582,
        0.0,
        0.0,
        0.0,
        0.0,
        0.0,
        1.0
      ],
      "name": "a47f70f23a6e41b1a656a98c77ab8b41.fbx"
    },
    {
      "children": [
        3,
        5,
        9,
        11,
        13,
        15,
        17
      ],
      "name": "RootNode"
    },
    {
      "children": [
        4
      ],
      "matrix": [
        55.45827865600586,
        0.0,
        0.0,
        0.0,
        0.0,
        -9.035300436537977e-06,
        -55.45827865600513,
        0.0,
        0.0,
        128.91886901855298,
        -2.1003549726929456e-05,
        0.0,
        0.0,
        228.8357696533203,
        0.0,
        1.0
      ],
      "name": "SW. Frame"
    },
    {
      "mesh": 0,
      "name": "SW. Frame_Fan Dark Pink_0"
    },
    {
      "children": [
        6,
        7,
        8
      ],
      "matrix": [
        27.394065856933484,
        2.3948653873624543e-06,
        -0.0,
        -0.0,
        4.301852047475943e-12,
        -4.9207449847733545e-05,
        302.03317260741784,
        -0.0,
        -1.891673894791247e-05,
        216.38226318359003,
        3.525314542230619e-05,
        -0.0,
        0.0,
        222.05584716796875,
        309.0549011230469,
        1.0
      ],
      "name": "SW. Walls 2.001"
    },
    {
      "mesh": 1,
      "name": "SW. Walls 2.001_Fan Light Pink_0"
    },
    {
      "mesh": 2,
      "name": "SW. Walls 2.001_SW White_0"
    },
    {
      "mesh": 3,
      "name": "SW. Walls 2.001_Fan Dark Pink_0"
    },
    {
      "children": [
        10
      ],
      "matrix": [
        -12.802721977233887,
        -0.0,
        -0.0,
        -0.0,
        -0.0,
        12.802721977233745,
        1.9331572355798715e-06,
        -0.0,
        -0.0,
        -2.0359213151387253e-05,
        134.83297729492037,
        -0.0,
        18.839338302612305,
        347.43841552734375,
        319.0660705566406,
        1.0
      ],
      "name": "SW. Frame.005"
    },
    {
      "mesh": 4,
      "name": "SW. Frame.005_Fan Dark Pink_0"
    },
    {
      "children": [
        12
      ],
      "matrix": [
        -12.802721977233887,
        -0.0,
        -0.0,
        -0.0,
        -0.0,
        12.802721977233745,
        1.9331572355798715e-06,
        -0.0,
        -0.0,
        -2.0359213151387253e-05,
        134.83297729492037,
        -0.0,
        18.839338302612305,
        56.000267028808594,
        319.0660705566406,
        1.0
      ],
      "name": "SW. Frame.010"
    },
    {
      "mesh": 5,
      "name": "SW. Frame.010_Fan Dark Pink_0"
    },
    {
      "children": [
        14
      ],
      "matrix": [
        -12.802721977233887,
        -0.0,
        -0.0,
        -0.0,
        -0.0,
        2.085828162595676e-06,
        -12.802721977233718,
        -0.0,
        -0.0,
        82.72837066650281,
        1.3478162353966073e-05,
        -0.0,
        18.839338302612305,
        205.7869415283203,
        89.93988037109375,
        1.0
      ],
      "name": "SW. Frame.011"
    },
    {
      "mesh": 6,
      "name": "SW. Frame.011_Fan Dark Pink_0"
    },
    {
      "children": [
        16
      ],
      "matrix": [
        -12.802721977233887,
        -0.0,
        -0.0,
        -0.0,
        -0.0,
        2.085828162595676e-06,
        -12.802721977233718,
        -0.0,
        -0.0,
        85.56314849853402,
        1.3940006284285508e-05,
        -0.0,
        18.839338302612305,
        202.5054473876953,
        546.440673828125,
        1.0
      ],
      "name": "SW. Frame.012"
    },
    {
      "mesh": 7,
      "name": "SW. Frame.012_Fan Dark Pink_0"
    },
    {
      "children": [
        18,
        19,
        20
      ],
      "matrix": [
        27.394065856933594,
        0.0,
        0.0,
        0.0,
        0.0,
        -4.920744968007146e-05,
        -302.0331726074179,
        0.0,
        0.0,
        216.38226318359088,
        -3.5253145326213163e-05,
        0.0,
        0.0,
        222.05584716796875,
        -308.9232482910156,
        1.0
      ],
      "name": "SW. Walls 2.002"
    },
    {
      "mesh": 8,
      "name": "SW. Walls 2.002_Fan Light Pink_0"
    },
    {
      "mesh": 9,
      "name": "SW. Walls 2.002_SW White_0"
    },
    {
      "mesh": 10,
      "name": "SW. Walls 2.002_Fan Dark Pink_0"
    }
  ],
  "scene": 0,
  "scenes": [
    {
      "name": "Sketchfab_Scene",
      "nodes": [
        0
      ]
    }
  ]
}
