{
  "accessors": [
    {
      "bufferView": 2,
      "componentType": 5126,
      "count": 1016,
      "max": [
        1.692520260810852,
        1.6925201416015625,
        23.792720794677734
      ],
      "min": [
        -1.692520260810852,
        -1.6925203800201416,
        -103.38203430175781
      ],
      "type": "VEC3"
    },
    {
      "bufferView": 2,
      "byteOffset": 12192,
      "componentType": 5126,
      "count": 1016,
      "max": [
        0.9999793767929077,
        0.9999793171882629,
        0.9908996820449829
      ],
      "min": [
        -0.9999793767929077,
        -0.9999793767929077,
        -0.990897536277771
      ],
      "type": "VEC3"
    },
    {
      "bufferView": 1,
      "componentType": 5126,
      "count": 1016,
      "max": [
        1.0,
        1.0
      ],
      "min": [
        2.7939677238464355e-07,
        0.01001304853707552
      ],
      "type": "VEC2"
    },
    {
      "bufferView": 0,
      "componentType": 5125,
      "count": 2712,
      "type": "SCALAR"
    },
    {
      "bufferView": 2,
      "byteOffset": 24384,
      "componentType": 5126,
      "count": 2989,
      "max": [
        1.692520260810852,
        5.945925235748291,
        21.896812438964844
      ],
      "min": [
        -1.692520260810852,
        -1.6925203800201416,
        -103.38203430175781
      ],
      "type": "VEC3"
    },
    {
      "bufferView": 2,
      "byteOffset": 60252,
      "componentType": 5126,
      "count": 2989,
      "max": [
        0.9999793767929077,
        0.9999794363975525,
        1.0
      ],
      "min": [
        -0.9999793767929077,
        -0.9999793767929077,
        -1.0
      ],
      "type": "VEC3"
    },
    {
      "bufferView": 1,
      "byteOffset": 8128,
      "componentType": 5126,
      "count": 2989,
      "max": [
        1.0,
        1.0
      ],
      "min": [
        2.7939677238464355e-07,
        0.01001304853707552
      ],
      "type": "VEC2"
    },
    {
      "bufferView": 0,
      "byteOffset": 10848,
      "componentType": 5125,
      "count": 8760,
      "type": "SCALAR"
    },
    {
      "bufferView": 2,
      "byteOffset": 96120,
      "componentType": 5126,
      "count": 464,
      "max": [
        1.0081149339675903,
        1.0085197687149048,
        0.8235591650009155
      ],
      "min": [
        -1.0081149339675903,
        -1.0054266452789307,
        -0.8235592842102051
      ],
      "type": "VEC3"
    },
    {
      "bufferView": 2,
      "byteOffset": 101688,
      "componentType": 5126,
      "count": 464,
      "max": [
        0.9967591762542725,
        0.9967992901802063,
        0.10775204002857208
      ],
      "min": [
        -0.9967591762542725,
        -0.9958395957946777,
        -0.10775212198495865
      ],
      "type": "VEC3"
    },
    {
      "bufferView": 1,
      "byteOffset": 32040,
      "componentType": 5126,
      "count": 464,
      "max": [
        1.655263900756836,
        0.7274143099784851
      ],
      "min": [
        -0.717485785484314,
        -0.2496364414691925
      ],
      "type": "VEC2"
    },
    {
      "bufferView": 0,
      "byteOffset": 45888,
      "componentType": 5125,
      "count": 990,
      "type": "SCALAR"
    },
    {
      "bufferView": 2,
      "byteOffset": 107256,
      "componentType": 5126,
      "count": 44,
      "max": [
        0.824280321598053,
        0.8327565789222717,
        1.0
      ],
      "min": [
        -0.8318132758140564,
        -0.8289858102798462,
        -1.0
      ],
      "type": "VEC3"
    },
    {
      "bufferView": 2,
      "byteOffset": 107784,
      "componentType": 5126,
      "count": 44,
      "max": [
        0.12425711005926132,
        0.12553471326828003,
        0.9920892715454102
      ],
      "min": [
        -0.1253923922777176,
        -0.12496641278266907,
        -0.9920893311500549
      ],
      "type": "VEC3"
    },
    {
      "bufferView": 1,
      "byteOffset": 35752,
      "componentType": 5126,
      "count": 44,
      "max": [
        0.9458684921264648,
        0.44788262248039246
      ],
      "min": [
        0.05234139412641525,
        0.05301326885819435
      ],
      "type": "VEC2"
    },
    {
      "bufferView": 0,
      "byteOffset": 49848,
      "componentType": 5125,
      "count": 84,
      "type": "SCALAR"
    },
    {
      "bufferView": 2,
      "byteOffset": 108312,
      "componentType": 5126,
      "count": 2073,
      "max": [
        1.0081149339675903,
        1.0085197687149048,
        1.0
      ],
      "min": [
        -1.0081149339675903,
        -1.0054266452789307,
        -1.0
      ],
      "type": "VEC3"
    },
    {
      "bufferView": 2,
      "byteOffset": 133188,
      "componentType": 5126,
      "count": 2073,
      "max": [
        0.9967591762542725,
        0.9967992901802063,
        0.9920893311500549
      ],
      "min": [
        -0.9967591762542725,
        -0.9958395957946777,
        -0.9920893311500549
      ],
      "type": "VEC3"
    },
    {
      "bufferView": 1,
      "byteOffset": 36104,
      "componentType": 5126,
      "count": 2073,
      "max": [
        1.0,
        1.0
      ],
      "min": [
        4.470348358154297e-07,
        0.011086732149124146
      ],
      "type": "VEC2"
    },
    {
      "bufferView": 0,
      "byteOffset": 50184,
      "componentType": 5125,
      "count": 6336,
      "type": "SCALAR"
    },
    {
      "bufferView": 2,
      "byteOffset": 158064,
      "componentType": 5126,
      "count": 50,
      "max": [
        0.8318132758140564,
        0.8327565789222717,
        1.0
      ],
      "min": [
        -0.8318132758140564,
        -0.8289858102798462,
        -1.0
      ],
      "type": "VEC3"
    },
    {
      "bufferView": 2,
      "byteOffset": 158664,
      "componentType": 5126,
      "count": 50,
      "max": [
        0.12539249658584595,
        0.12553471326828003,
        0.9920893311500549
      ],
      "min": [
        -0.1253923922777176,
        -0.12496641278266907,
        -0.9920893311500549
      ],
      "type": "VEC3"
    },
    {
      "bufferView": 1,
      "byteOffset": 52688,
      "componentType": 5126,
      "count": 50,
      "max": [
        0.9476585388183594,
        0.44788262248039246
      ],
      "min": [
        0.05234139412641525,
        0.05301326885819435
      ],
      "type": "VEC2"
    },
    {
      "bufferView": 0,
      "byteOffset": 75528,
      "componentType": 5125,
      "count": 102,
      "type": "SCALAR"
    }
  ],
  "asset": {
    "extras": {
      "author": "KDSpritzy (https://sketchfab.com/KDSpritzy)",
      "license": "CC-BY-4.0 (http://creativecommons.org/licenses/by/4.0/)",
      "source": "https://sketchfab.com/3d-models/fall-guys-swinging-hammer-22d4cc5960f343ea829359c0521b914b",
      "title": "Fall Guys Swinging Hammer"
    },
    "generator": "Sketchfab-15.30.0",
    "version": "2.0"
  },
  "bufferViews": [
    {
      "buffer": 0,
      "byteLength": 75936,
      "name": "floatBufferViews",
      "target": 34963
    },
    {
      "buffer": 0,
      "byteLength": 53088,
      "byteOffset": 75936,
      "byteStride": 8,
      "name": "floatBufferViews",
      "target": 34962
    },
    {
      "buffer": 0,
      "byteLength": 159264,
      "byteOffset": 129024,
      "byteStride": 12,
      "name": "floatBufferViews",
      "target": 34962
    }
  ],
  "buffers": [
    {
      "byteLength": 288288,
      "uri": "scene.bin"
    }
  ],
  "images": [
    {
      "uri": "textures/Swinging_Hammer_Orange_Sprinkles_baseColor.jpeg"
    }
  ],
  "materials": [
    {
      "doubleSided": true,
      "name": "Swinging_Hammer",
      "pbrMetallicRoughness": {
        "baseColorFactor": [
          0.0,
          0.0,
          0.0,
          1.0
        ],
        "metallicFactor": 0.0,
        "roughnessFactor": 0.8211145618000169
      }
    },
    {
      "doubleSided": true,
      "name": "Swinging_Hammer_Yellow",
      "pbrMetallicRoughness": {
        "baseColorFactor": [
          0.6609499482749248,
          0.7630379770052786,
          0.04950469176515329,
          1.0
        ],
        "metallicFactor": 0.0,
        "roughnessFactor": 0.8211145618000169
      }
    },
    {
      "doubleSided": true,
      "name": "Swinging_Hammer_Orange_Sprinkles",
      "pbrMetallicRoughness": {
        "baseColorTexture": {
          "index": 0
        },
        "metallicFactor": 0.0,
        "roughnessFactor": 0.8211145618000169
      }
    },
    {
      "doubleSided": true,
      "name": "Swining_Hammer_White",
      "pbrMetallicRoughness": {
        "metallicFactor": 0.0,
        "roughnessFactor": 0.8211145618000169
      }
    },
    {
      "doubleSided": true,
      "name": "Swinging_Hammer_red",
      "pbrMetallicRoughness": {
        "baseColorFactor": [
          0.8069276581849685,
          0.008113601278104544,
          0.008113601278104544,
          1.0
        ],
        "metallicFactor": 0.0,
        "roughnessFactor": 0.8211145618000169
      }
    }
  ],
  "meshes": [
    {
      "name": "SH. Frame_Swinging Hammer _0",
      "primitives": [
        {
          "attributes": {
            "NORMAL": 1,
            "POSITION": 0,
            "TEXCOORD_0": 2
          },
          "indices": 3,
          "material": 0,
          "mode": 4
        }
      ]
    },
    {
      "name": "SH. Frame_Swinging Hammer Yellow_0",
      "primitives": [
        {
          "attributes": {
            "NORMAL": 5,
            "POSITION": 4,
            "TEXCOORD_0": 6
          },
          "indices": 7,
          "material": 1,
          "mode": 4
        }
      ]
    },
    {
      "name": "Cylinder_Swinging Hammer Orange Sprinkles_0",
      "primitives": [
        {
          "attributes": {
            "NORMAL": 9,
            "POSITION": 8,
            "TEXCOORD_0": 10
          },
          "indices": 11,
          "material": 2,
          "mode": 4
        }
      ]
    },
    {
      "name": "Cylinder_Swining Hammer White_0",
      "primitives": [
        {
          "attributes": {
            "NORMAL": 13,
            "POSITION": 12,
            "TEXCOORD_0": 14
          },
          "indices": 15,
          "material": 3,
          "mode": 4
        }
      ]
    },
    {
      "name": "Cylinder_Swinging Hammer Yellow_0",
      "primitives": [
        {
          "attributes": {
            "NORMAL": 17,
            "POSITION": 16,
            "TEXCOORD_0": 18
          },
          "indices": 19,
          "material": 1,
          "mode": 4
        }
      ]
    },
    {
      "name": "Cylinder_Swinging Hammer red_0",
      "primitives": [
        {
          "attributes": {
            "NORMAL": 21,
            "POSITION": 20,
            "TEXCOORD_0": 22
          },
          "indices": 23,
          "material": 4,
          "mode": 4
        }
      ]
    }
  ],
  "nodes": [
    {
      "children": [
        1
      ],
      "matrix": [
        1.0,
        0.0,
        0.0,
        0.0,
        0.0,
        2.220446049250313e-16,
        -1.0,
        0.0,
        0.0,
        1.0,
        2.220446049250313e-16,
        0.0,
        0.0,
        0.0,
        0.0,
        1.0
      ],
      "name": "Sketchfab_model"
    },
    {
      "children": [
        2
      ],
      "matrix": [
        0.009999999776482582,
        0.0,
        0.0,
        0.0,
        0.0,
        0.0,
        0.009999999776482582,
        0.0,
        0.0,
        -0.009999999776482582,
        0.0,
        0.0,
        0.0,
        0.0,
        0.0,
        1.0
      ],
      "name": "SwingingHammer.fbx"
    },
    {
      "children": [
        3,
        6
      ],
      "name": "RootNode"
    },
    {
      "children": [
        4,
        5
      ],
      "matrix": [
        38.641090393066406,
        0.0,
        0.0,
        0.0,
        0.0,
        -6.295432699279549e-06,
        -38.641090393065895,
        0.0,
        0.0,
        1.6070140600204255,
        -2.618158224507565e-07,
        0.0,
        1.5161745068326127e-06,
        168.0612030029297,
        3.5628803743747994e-05,
        1.0
      ],
      "name": "SH. Frame"
    },
    {
      "mesh": 0,
      "name": "SH. Frame_Swinging Hammer _0"
    },
    {
      "mesh": 1,
      "name": "SH. Frame_Swinging Hammer Yellow_0"
    },
    {
      "children": [
        7,
        8,
        9,
        10
      ],
      "matrix": [
        -4.476622348876592e-06,
        -102.41317749023429,
        -1.13701467674681e-14,
        0.0,
        -4.476622354561665e-06,
        2.046626418144258e-13,
        -102.41317749023429,
        0.0,
        133.88667297363256,
        -5.8523725940326755e-06,
        -5.852372586600472e-06,
        0.0,
        3.9816527366638184,
        101.05669403076172,
        -256.5574645996094,
        1.0
      ],
      "name": "Cylinder"
    },
    {
      "mesh": 2,
      "name": "Cylinder_Swinging Hammer Orange Sprinkles_0"
    },
    {
      "mesh": 3,
      "name": "Cylinder_Swining Hammer White_0"
    },
    {
      "mesh": 4,
      "name": "Cylinder_Swinging Hammer Yellow_0"
    },
    {
      "mesh": 5,
      "name": "Cylinder_Swinging Hammer red_0"
    }
  ],
  "samplers": [
    {
      "magFilter": 9729,
      "minFilter": 9987,
      "wrapS": 10497,
      "wrapT": 10497
    }
  ],
  "scene": 0,
  "scenes": [
    {
      "name": "Sketchfab_Scene",
      "nodes": [
        0
      ]
    }
  ],
  "textures": [
    {
      "sampler": 0,
      "source": 0
    }
  ]
}
