{
  "accessors": [
    {
      "bufferView": 2,
      "componentType": 5126,
      "count": 790,
      "max": [
        1.0000001192092896,
        1.0,
        1.0
      ],
      "min": [
        -1.0000001192092896,
        -1.0,
        -1.0
      ],
      "type": "VEC3"
    },
    {
      "bufferView": 2,
      "byteOffset": 9480,
      "componentType": 5126,
      "count": 790,
      "max": [
        1.0,
        1.0,
        1.0
      ],
      "min": [
        -1.0,
        -1.0,
        -1.0
      ],
      "type": "VEC3"
    },
    {
      "bufferView": 1,
      "componentType": 5126,
      "count": 790,
      "max": [
        1.0,
        1.0786653757095337
      ],
      "min": [
        3.8743019104003906e-07,
        -0.01669299602508545
      ],
      "type": "VEC2"
    },
    {
      "bufferView": 0,
      "componentType": 5125,
      "count": 1362,
      "type": "SCALAR"
    },
    {
      "bufferView": 2,
      "byteOffset": 18960,
      "componentType": 5126,
      "count": 120,
      "max": [
        1.0000001192092896,
        1.0,
        0.9048752784729004
      ],
      "min": [
        -1.0000001192092896,
        -1.0,
        -0.9048752784729004
      ],
      "type": "VEC3"
    },
    {
      "bufferView": 2,
      "byteOffset": 20400,
      "componentType": 5126,
      "count": 120,
      "max": [
        0.9660235047340393,
        0.9660234451293945,
        0.2584547996520996
      ],
      "min": [
        -0.9660235047340393,
        -0.9660234451293945,
        -0.2584547996520996
      ],
      "type": "VEC3"
    },
    {
      "bufferView": 1,
      "byteOffset": 6320,
      "componentType": 5126,
      "count": 120,
      "max": [
        0.9987582564353943,
        0.9950721263885498
      ],
      "min": [
        -0.005953967571258545,
        0.006087198853492737
      ],
      "type": "VEC2"
    },
    {
      "bufferView": 0,
      "byteOffset": 5448,
      "componentType": 5125,
      "count": 210,
      "type": "SCALAR"
    },
    {
      "bufferView": 2,
      "byteOffset": 21840,
      "componentType": 5126,
      "count": 532,
      "max": [
        0.9980267286300659,
        1.0,
        0.949999988079071
      ],
      "min": [
        -0.9980267286300659,
        -1.0,
        -0.949999988079071
      ],
      "type": "VEC3"
    },
    {
      "bufferView": 2,
      "byteOffset": 28224,
      "componentType": 5126,
      "count": 532,
      "max": [
        1.0,
        0.9980268478393555,
        6.071600182622205e-07
      ],
      "min": [
        -1.0,
        -0.9980268478393555,
        -6.071599045753828e-07
      ],
      "type": "VEC3"
    },
    {
      "bufferView": 1,
      "byteOffset": 7280,
      "componentType": 5126,
      "count": 532,
      "max": [
        1.0,
        0.987500011920929
      ],
      "min": [
        3.8743019104003906e-07,
        0.512499988079071
      ],
      "type": "VEC2"
    },
    {
      "bufferView": 0,
      "byteOffset": 6288,
      "componentType": 5125,
      "count": 810,
      "type": "SCALAR"
    },
    {
      "bufferView": 2,
      "byteOffset": 34608,
      "componentType": 5126,
      "count": 2816,
      "max": [
        0.9980267286300659,
        1.0,
        1.0668474435806274
      ],
      "min": [
        -0.9980267286300659,
        -1.0,
        -1.0515565872192383
      ],
      "type": "VEC3"
    },
    {
      "bufferView": 2,
      "byteOffset": 68400,
      "componentType": 5126,
      "count": 2816,
      "max": [
        1.0,
        0.9980270266532898,
        1.0
      ],
      "min": [
        -1.0,
        -0.998026967048645,
        -1.0
      ],
      "type": "VEC3"
    },
    {
      "bufferView": 1,
      "byteOffset": 11536,
      "componentType": 5126,
      "count": 2816,
      "max": [
        1.0,
        1.0
      ],
      "min": [
        3.8743019104003906e-07,
        0.010013890452682972
      ],
      "type": "VEC2"
    },
    {
      "bufferView": 0,
      "byteOffset": 9528,
      "componentType": 5125,
      "count": 4500,
      "type": "SCALAR"
    },
    {
      "bufferView": 2,
      "byteOffset": 102192,
      "componentType": 5126,
      "count": 2000,
      "max": [
        0.6916377544403076,
        0.6930052638053894,
        1.066847324371338
      ],
      "min": [
        -0.6916377544403076,
        -0.6930052638053894,
        -1.0515564680099487
      ],
      "type": "VEC3"
    },
    {
      "bufferView": 2,
      "byteOffset": 126192,
      "componentType": 5126,
      "count": 2000,
      "max": [
        0.9960399270057678,
        0.9940744042396545,
        0.9839878082275391
      ],
      "min": [
        -0.9960399270057678,
        -0.9940744042396545,
        -0.9839878082275391
      ],
      "type": "VEC3"
    },
    {
      "bufferView": 1,
      "byteOffset": 34064,
      "componentType": 5126,
      "count": 2000,
      "max": [
        0.9283359050750732,
        0.42868852615356445
      ],
      "min": [
        0.07166431844234467,
        0.07131172716617584
      ],
      "type": "VEC2"
    },
    {
      "bufferView": 0,
      "byteOffset": 27528,
      "componentType": 5125,
      "count": 3000,
      "type": "SCALAR"
    },
    {
      "bufferView": 2,
      "byteOffset": 150192,
      "componentType": 5126,
      "count": 460,
      "max": [
        0.6916377544403076,
        1.0,
        0.9489262104034424
      ],
      "min": [
        -0.9822872281074524,
        -0.6930052638053894,
        -0.9489262104034424
      ],
      "type": "VEC3"
    },
    {
      "bufferView": 2,
      "byteOffset": 155712,
      "componentType": 5126,
      "count": 460,
      "max": [
        0.8960579633712769,
        0.9980267882347107,
        0.4439382553100586
      ],
      "min": [
        -0.9685832858085632,
        -0.8942896127700806,
        -0.44393789768218994
      ],
      "type": "VEC3"
    },
    {
      "bufferView": 1,
      "byteOffset": 50064,
      "componentType": 5126,
      "count": 460,
      "max": [
        1.0,
        0.9758889675140381
      ],
      "min": [
        3.8743019104003906e-07,
        0.07131172716617584
      ],
      "type": "VEC2"
    },
    {
      "bufferView": 0,
      "byteOffset": 39528,
      "componentType": 5125,
      "count": 690,
      "type": "SCALAR"
    },
    {
      "bufferView": 2,
      "byteOffset": 161232,
      "componentType": 5126,
      "count": 790,
      "max": [
        1.0000001192092896,
        1.0,
        1.0
      ],
      "min": [
        -1.0000001192092896,
        -1.0,
        -1.0
      ],
      "type": "VEC3"
    },
    {
      "bufferView": 2,
      "byteOffset": 170712,
      "componentType": 5126,
      "count": 790,
      "max": [
        1.0,
        1.0,
        1.0
      ],
      "min": [
        -1.0,
        -1.0,
        -1.0
      ],
      "type": "VEC3"
    },
    {
      "bufferView": 1,
      "byteOffset": 53744,
      "componentType": 5126,
      "count": 790,
      "max": [
        1.0,
        1.0786653757095337
      ],
      "min": [
        3.8743019104003906e-07,
        -0.01669299602508545
      ],
      "type": "VEC2"
    },
    {
      "bufferView": 0,
      "byteOffset": 42288,
      "componentType": 5125,
      "count": 1362,
      "type": "SCALAR"
    },
    {
      "bufferView": 2,
      "byteOffset": 180192,
      "componentType": 5126,
      "count": 120,
      "max": [
        1.0000001192092896,
        1.0,
        0.9048752784729004
      ],
      "min": [
        -1.0000001192092896,
        -1.0,
        -0.9048752784729004
      ],
      "type": "VEC3"
    },
    {
      "bufferView": 2,
      "byteOffset": 181632,
      "componentType": 5126,
      "count": 120,
      "max": [
        0.9660235047340393,
        0.9660234451293945,
        0.2584547996520996
      ],
      "min": [
        -0.9660235047340393,
        -0.9660234451293945,
        -0.2584547996520996
      ],
      "type": "VEC3"
    },
    {
      "bufferView": 1,
      "byteOffset": 60064,
      "componentType": 5126,
      "count": 120,
      "max": [
        0.9987582564353943,
        0.9950721263885498
      ],
      "min": [
        -0.005953967571258545,
        0.006087198853492737
      ],
      "type": "VEC2"
    },
    {
      "bufferView": 0,
      "byteOffset": 47736,
      "componentType": 5125,
      "count": 210,
      "type": "SCALAR"
    },
    {
      "bufferView": 2,
      "byteOffset": 183072,
      "componentType": 5126,
      "count": 532,
      "max": [
        0.9980267286300659,
        1.0,
        0.949999988079071
      ],
      "min": [
        -0.9980267286300659,
        -1.0,
        -0.949999988079071
      ],
      "type": "VEC3"
    },
    {
      "bufferView": 2,
      "byteOffset": 189456,
      "componentType": 5126,
      "count": 532,
      "max": [
        1.0,
        0.9980268478393555,
        6.071600182622205e-07
      ],
      "min": [
        -1.0,
        -0.9980268478393555,
        -6.071599045753828e-07
      ],
      "type": "VEC3"
    },
    {
      "bufferView": 1,
      "byteOffset": 61024,
      "componentType": 5126,
      "count": 532,
      "max": [
        1.0,
        0.987500011920929
      ],
      "min": [
        3.8743019104003906e-07,
        0.512499988079071
      ],
      "type": "VEC2"
    },
    {
      "bufferView": 0,
      "byteOffset": 48576,
      "componentType": 5125,
      "count": 810,
      "type": "SCALAR"
    },
    {
      "bufferView": 2,
      "byteOffset": 195840,
      "componentType": 5126,
      "count": 2816,
      "max": [
        0.9980267286300659,
        1.0,
        1.0668474435806274
      ],
      "min": [
        -0.9980267286300659,
        -1.0,
        -1.0515565872192383
      ],
      "type": "VEC3"
    },
    {
      "bufferView": 2,
      "byteOffset": 229632,
      "componentType": 5126,
      "count": 2816,
      "max": [
        1.0,
        0.9980270266532898,
        1.0
      ],
      "min": [
        -1.0,
        -0.998026967048645,
        -1.0
      ],
      "type": "VEC3"
    },
    {
      "bufferView": 1,
      "byteOffset": 65280,
      "componentType": 5126,
      "count": 2816,
      "max": [
        1.0,
        1.0
      ],
      "min": [
        3.8743019104003906e-07,
        0.010013890452682972
      ],
      "type": "VEC2"
    },
    {
      "bufferView": 0,
      "byteOffset": 51816,
      "componentType": 5125,
      "count": 4500,
      "type": "SCALAR"
    },
    {
      "bufferView": 2,
      "byteOffset": 263424,
      "componentType": 5126,
      "count": 2000,
      "max": [
        0.6916377544403076,
        0.6930052638053894,
        1.066847324371338
      ],
      "min": [
        -0.6916377544403076,
        -0.6930052638053894,
        -1.0515564680099487
      ],
      "type": "VEC3"
    },
    {
      "bufferView": 2,
      "byteOffset": 287424,
      "componentType": 5126,
      "count": 2000,
      "max": [
        0.9960399270057678,
        0.9940744042396545,
        0.9839878082275391
      ],
      "min": [
        -0.9960399270057678,
        -0.9940744042396545,
        -0.9839878082275391
      ],
      "type": "VEC3"
    },
    {
      "bufferView": 1,
      "byteOffset": 87808,
      "componentType": 5126,
      "count": 2000,
      "max": [
        0.9283359050750732,
        0.42868852615356445
      ],
      "min": [
        0.07166431844234467,
        0.07131172716617584
      ],
      "type": "VEC2"
    },
    {
      "bufferView": 0,
      "byteOffset": 69816,
      "componentType": 5125,
      "count": 3000,
      "type": "SCALAR"
    },
    {
      "bufferView": 2,
      "byteOffset": 311424,
      "componentType": 5126,
      "count": 460,
      "max": [
        0.6916377544403076,
        1.0,
        0.9489262104034424
      ],
      "min": [
        -0.9822872281074524,
        -0.6930052638053894,
        -0.9489262104034424
      ],
      "type": "VEC3"
    },
    {
      "bufferView": 2,
      "byteOffset": 316944,
      "componentType": 5126,
      "count": 460,
      "max": [
        0.8960579633712769,
        0.9980267882347107,
        0.4439382553100586
      ],
      "min": [
        -0.9685832858085632,
        -0.8942896127700806,
        -0.44393789768218994
      ],
      "type": "VEC3"
    },
    {
      "bufferView": 1,
      "byteOffset": 103808,
      "componentType": 5126,
      "count": 460,
      "max": [
        1.0,
        0.9758889675140381
      ],
      "min": [
        3.8743019104003906e-07,
        0.07131172716617584
      ],
      "type": "VEC2"
    },
    {
      "bufferView": 0,
      "byteOffset": 81816,
      "componentType": 5125,
      "count": 690,
      "type": "SCALAR"
    }
  ],
  "asset": {
    "extras": {
      "author": "KDSpritzy (https://sketchfab.com/KDSpritzy)",
      "license": "CC-BY-4.0 (http://creativecommons.org/licenses/by/4.0/)",
      "source": "https://sketchfab.com/3d-models/fall-guys-bridge-7bd7d290f9174151b8de22613b8b2cac",
      "title": "Fall Guys Bridge"
    },
    "generator": "Sketchfab-15.30.0",
    "version": "2.0"
  },
  "bufferViews": [
    {
      "buffer": 0,
      "byteLength": 84576,
      "name": "floatBufferViews",
      "target": 34963
    },
    {
      "buffer": 0,
      "byteLength": 107488,
      "byteOffset": 84576,
      "byteStride": 8,
      "name": "floatBufferViews",
      "target": 34962
    },
    {
      "buffer": 0,
      "byteLength": 322464,
      "byteOffset": 192064,
      "byteStride": 12,
      "name": "floatBufferViews",
      "target": 34962
    }
  ],
  "buffers": [
    {
      "byteLength": 514528,
      "uri": "scene.bin"
    }
  ],
  "extensionsUsed": [
    "KHR_materials_unlit"
  ],
  "images": [
    {
      "uri": "textures/Bridge_Wood_baseColor.jpeg"
    },
    {
      "uri": "textures/Bridge_Black_baseColor.jpeg"
    },
    {
      "uri": "textures/Bridge_Silver_baseColor.jpeg"
    }
  ],
  "materials": [
    {
      "doubleSided": true,
      "extensions": {
        "KHR_materials_unlit": {}
      },
      "name": "Bridge_Wood",
      "pbrMetallicRoughness": {
        "baseColorTexture": {
          "index": 0
        },
        "metallicFactor": 0.0
      }
    },
    {
      "doubleSided": true,
      "extensions": {
        "KHR_materials_unlit": {}
      },
      "name": "Bridge_Brown",
      "pbrMetallicRoughness": {
        "baseColorFactor": [
          0.0497066,
          0.0116122,
          0.00242822,
          1.0
        ],
        "metallicFactor": 0.0
      }
    },
    {
      "doubleSided": true,
      "extensions": {
        "KHR_materials_unlit": {}
      },
      "name": "Bridge_Light_Brown",
      "pbrMetallicRoughness": {
        "baseColorFactor": [
          0.116971,
          0.0512695,
          0.00972122,
          1.0
        ],
        "metallicFactor": 0.0
      }
    },
    {
      "doubleSided": true,
      "extensions": {
        "KHR_materials_unlit": {}
      },
      "name": "Bridge_Black",
      "pbrMetallicRoughness": {
        "baseColorTexture": {
          "index": 1
        },
        "metallicFactor": 0.0
      }
    },
    {
      "doubleSided": true,
      "extensions": {
        "KHR_materials_unlit": {}
      },
      "name": "Bridge_Silver",
      "pbrMetallicRoughness": {
        "baseColorTexture": {
          "index": 2
        },
        "metallicFactor": 0.0
      }
    }
  ],
  "meshes": [
    {
      "name": "Cube_Bridge Wood_0",
      "primitives": [
        {
          "attributes": {
            "NORMAL": 1,
            "POSITION": 0,
            "TEXCOORD_0": 2
          },
          "indices": 3,
          "material": 0,
          "mode": 4
        }
      ]
    },
    {
      "name": "Cube_Bridge Brown_0",
      "primitives": [
        {
          "attributes": {
            "NORMAL": 5,
            "POSITION": 4,
            "TEXCOORD_0": 6
          },
          "indices": 7,
          "material": 1,
          "mode": 4
        }
      ]
    },
    {
      "name": "Cylinder_Bridge Light Brown_0",
      "primitives": [
        {
          "attributes": {
            "NORMAL": 9,
            "POSITION": 8,
            "TEXCOORD_0": 10
          },
          "indices": 11,
          "material": 2,
          "mode": 4
        }
      ]
    },
    {
      "name": "Cylinder_Bridge Black_0",
      "primitives": [
        {
          "attributes": {
            "NORMAL": 13,
            "POSITION": 12,
            "TEXCOORD_0": 14
          },
          "indices": 15,
          "material": 3,
          "mode": 4
        }
      ]
    },
    {
      "name": "Cylinder_Bridge Silver_0",
      "primitives": [
        {
          "attributes": {
            "NORMAL": 17,
            "POSITION": 16,
            "TEXCOORD_0": 18
          },
          "indices": 19,
          "material": 4,
          "mode": 4
        }
      ]
    },
    {
      "name": "Cylinder_Bridge Brown_0",
      "primitives": [
        {
          "attributes": {
            "NORMAL": 21,
            "POSITION": 20,
            "TEXCOORD_0": 22
          },
          "indices": 23,
          "material": 1,
          "mode": 4
        }
      ]
    },
    {
      "name": "Cube.001_Bridge Wood_0",
      "primitives": [
        {
          "attributes": {
            "NORMAL": 25,
            "POSITION": 24,
            "TEXCOORD_0": 26
          },
          "indices": 27,
          "material": 0,
          "mode": 4
        }
      ]
    },
    {
      "name": "Cube.001_Bridge Brown_0",
      "primitives": [
        {
          "attributes": {
            "NORMAL": 29,
            "POSITION": 28,
            "TEXCOORD_0": 30
          },
          "indices": 31,
          "material": 1,
          "mode": 4
        }
      ]
    },
    {
      "name": "Cylinder.001_Bridge Light Brown_0",
      "primitives": [
        {
          "attributes": {
            "NORMAL": 33,
            "POSITION": 32,
            "TEXCOORD_0": 34
          },
          "indices": 35,
          "material": 2,
          "mode": 4
        }
      ]
    },
    {
      "name": "Cylinder.001_Bridge Black_0",
      "primitives": [
        {
          "attributes": {
            "NORMAL": 37,
            "POSITION": 36,
            "TEXCOORD_0": 38
          },
          "indices": 39,
          "material": 3,
          "mode": 4
        }
      ]
    },
    {
      "name": "Cylinder.001_Bridge Silver_0",
      "primitives": [
        {
          "attributes": {
            "NORMAL": 41,
            "POSITION": 40,
            "TEXCOORD_0": 42
          },
          "indices": 43,
          "material": 4,
          "mode": 4
        }
      ]
    },
    {
      "name": "Cylinder.001_Bridge Brown_0",
      "primitives": [
        {
          "attributes": {
            "NORMAL": 45,
            "POSITION": 44,
            "TEXCOORD_0": 46
          },
          "indices": 47,
          "material": 1,
          "mode": 4
        }
      ]
    }
  ],
  "nodes": [
    {
      "children": [
        1
      ],
      "matrix": [
        1.0,
        0.0,
        0.0,
        0.0,
        0.0,
        2.220446049250313e-16,
        -1.0,
        0.0,
        0.0,
        1.0,
        2.220446049250313e-16,
        0.0,
        0.0,
        0.0,
        0.0,
        1.0
      ],
      "name": "Sketchfab_model"
    },
    {
      "children": [
        2
      ],
      "matrix": [
        0.009999999776482582,
        0.0,
        0.0,
        0.0,
        0.0,
        0.0,
        0.009999999776482582,
        0.0,
        0.0,
        -0.009999999776482582,
        0.0,
        0.0,
        0.0,
        0.0,
        0.0,
        1.0
      ],
      "name": "Bridge.fbx"
    },
    {
      "children": [
        3,
        6,
        11,
        14
      ],
      "name": "RootNode"
    },
    {
      "children": [
        4,
        5
      ],
      "matrix": [
        291.828369140625,
        0.0,
        0.0,
        0.0,
        0.0,
        -3.235060861425633e-05,
        -198.56661987304426,
        0.0,
        0.0,
        39.29160308837839,
        -6.401414669552873e-06,
        0.0,
        0.0,
        0.0,
        0.0,
        1.0
      ],
      "name": "Cube"
    },
    {
      "mesh": 0,
      "name": "Cube_Bridge Wood_0"
    },
    {
      "mesh": 1,
      "name": "Cube_Bridge Brown_0"
    },
    {
      "children": [
        7,
        8,
        9,
        10
      ],
      "matrix": [
        -7.0444163719157875e-06,
        -43.23831939697208,
        1.0862105316531248e-13,
        0.0,
        43.238319396972045,
        -7.0444163719157875e-06,
        1.8900074288671696e-06,
        0.0,
        -9.443979271091665e-06,
        2.081376629561837e-12,
        216.0530090332029,
        0.0,
        -273.6379089355469,
        -7.769784927368164,
        0.0,
        1.0
      ],
      "name": "Cylinder"
    },
    {
      "mesh": 2,
      "name": "Cylinder_Bridge Light Brown_0"
    },
    {
      "mesh": 3,
      "name": "Cylinder_Bridge Black_0"
    },
    {
      "mesh": 4,
      "name": "Cylinder_Bridge Silver_0"
    },
    {
      "mesh": 5,
      "name": "Cylinder_Bridge Brown_0"
    },
    {
      "children": [
        12,
        13
      ],
      "matrix": [
        -291.828369140625,
        -0.0,
        -0.0,
        -0.0,
        -0.0,
        3.235060861425633e-05,
        -198.56661987304426,
        -0.0,
        -0.0,
        39.29160308837839,
        6.401414669552873e-06,
        -0.0,
        593.6217651367188,
        0.0,
        0.0,
        1.0
      ],
      "name": "Cube.001"
    },
    {
      "mesh": 6,
      "name": "Cube.001_Bridge Wood_0"
    },
    {
      "mesh": 7,
      "name": "Cube.001_Bridge Brown_0"
    },
    {
      "children": [
        15,
        16,
        17,
        18
      ],
      "matrix": [
        -8.418811618931166e-06,
        -43.23831939697183,
        5.0694620321362556e-14,
        -0.0,
        -43.23831939697134,
        8.418811618931166e-06,
        6.5288045889933945e-06,
        -0.0,
        3.262309674646014e-05,
        -6.098640840909859e-12,
        216.05300903320062,
        -0.0,
        867.2597045898438,
        -7.769784927368164,
        0.0,
        1.0
      ],
      "name": "Cylinder.001"
    },
    {
      "mesh": 8,
      "name": "Cylinder.001_Bridge Light Brown_0"
    },
    {
      "mesh": 9,
      "name": "Cylinder.001_Bridge Black_0"
    },
    {
      "mesh": 10,
      "name": "Cylinder.001_Bridge Silver_0"
    },
    {
      "mesh": 11,
      "name": "Cylinder.001_Bridge Brown_0"
    }
  ],
  "samplers": [
    {
      "magFilter": 9729,
      "minFilter": 9987,
      "wrapS": 10497,
      "wrapT": 10497
    }
  ],
  "scene": 0,
  "scenes": [
    {
      "name": "Sketchfab_Scene",
      "nodes": [
        0
      ]
    }
  ],
  "textures": [
    {
      "sampler": 0,
      "source": 0
    },
    {
      "sampler": 0,
      "source": 1
    },
    {
      "sampler": 0,
      "source": 2
    }
  ]
}
