{
  "accessors": [
    {
      "bufferView": 2,
      "componentType": 5126,
      "count": 1084,
      "max": [
        0.21098196506500244,
        0.7447993159294128,
        1.0
      ],
      "min": [
        -0.21222150325775146,
        -0.7447993159294128,
        -1.0
      ],
      "type": "VEC3"
    },
    {
      "bufferView": 2,
      "byteOffset": 13008,
      "componentType": 5126,
      "count": 1084,
      "max": [
        1.0,
        1.0,
        1.0
      ],
      "min": [
        -1.0,
        -1.0,
        -1.0
      ],
      "type": "VEC3"
    },
    {
      "bufferView": 1,
      "componentType": 5126,
      "count": 1084,
      "max": [
        0.875,
        1.0
      ],
      "min": [
        0.0,
        0.0
      ],
      "type": "VEC2"
    },
    {
      "bufferView": 0,
      "componentType": 5125,
      "count": 1746,
      "type": "SCALAR"
    },
    {
      "bufferView": 2,
      "byteOffset": 26016,
      "componentType": 5126,
      "count": 56,
      "max": [
        -0.21098196506500244,
        0.4544844925403595,
        0.7993386387825012
      ],
      "min": [
        -0.21098196506500244,
        -0.485382616519928,
        -0.8826874494552612
      ],
      "type": "VEC3"
    },
    {
      "bufferView": 2,
      "byteOffset": 26688,
      "componentType": 5126,
      "count": 56,
      "max": [
        -1.0,
        5.450692697195336e-08,
        0.0
      ],
      "min": [
        -1.0,
        -1.5773396810914164e-08,
        0.0
      ],
      "type": "VEC3"
    },
    {
      "bufferView": 1,
      "byteOffset": 8672,
      "componentType": 5126,
      "count": 56,
      "max": [
        0.5930249094963074,
        0.21308210492134094
      ],
      "min": [
        0.0,
        0.0
      ],
      "type": "VEC2"
    },
    {
      "bufferView": 0,
      "byteOffset": 6984,
      "componentType": 5125,
      "count": 114,
      "type": "SCALAR"
    },
    {
      "bufferView": 2,
      "byteOffset": 27360,
      "componentType": 5126,
      "count": 1702,
      "max": [
        1.0,
        1.0,
        1.0271532535552979
      ],
      "min": [
        -1.0,
        -1.0,
        -1.0231822729110718
      ],
      "type": "VEC3"
    },
    {
      "bufferView": 2,
      "byteOffset": 47784,
      "componentType": 5126,
      "count": 1702,
      "max": [
        0.9951847791671753,
        0.9951847791671753,
        1.0
      ],
      "min": [
        -0.9951847791671753,
        -0.9951847791671753,
        -1.0
      ],
      "type": "VEC3"
    },
    {
      "bufferView": 1,
      "byteOffset": 9120,
      "componentType": 5126,
      "count": 1702,
      "max": [
        1.0,
        1.0
      ],
      "min": [
        0.0,
        0.010067866183817387
      ],
      "type": "VEC2"
    },
    {
      "bufferView": 0,
      "byteOffset": 7440,
      "componentType": 5125,
      "count": 2676,
      "type": "SCALAR"
    },
    {
      "bufferView": 2,
      "byteOffset": 68208,
      "componentType": 5126,
      "count": 384,
      "max": [
        1.0,
        1.0,
        2.1563501358032227
      ],
      "min": [
        -1.0,
        -111.57768249511719,
        -1.0
      ],
      "type": "VEC3"
    },
    {
      "bufferView": 2,
      "byteOffset": 72816,
      "componentType": 5126,
      "count": 384,
      "max": [
        0.9951847195625305,
        0.9951847195625305,
        1.0
      ],
      "min": [
        -0.9951847195625305,
        -0.9951847195625305,
        -1.0
      ],
      "type": "VEC3"
    },
    {
      "bufferView": 1,
      "byteOffset": 22736,
      "componentType": 5126,
      "count": 384,
      "max": [
        1.0,
        1.0
      ],
      "min": [
        0.0,
        0.01000000536441803
      ],
      "type": "VEC2"
    },
    {
      "bufferView": 0,
      "byteOffset": 18144,
      "componentType": 5125,
      "count": 744,
      "type": "SCALAR"
    },
    {
      "bufferView": 2,
      "byteOffset": 77424,
      "componentType": 5126,
      "count": 1104,
      "max": [
        -2.1257405281066895,
        0.7658705711364746,
        0.2135598361492157
      ],
      "min": [
        -3.4766159057617188,
        -0.5850048065185547,
        -0.19572356343269348
      ],
      "type": "VEC3"
    },
    {
      "bufferView": 2,
      "byteOffset": 90672,
      "componentType": 5126,
      "count": 1104,
      "max": [
        1.0,
        1.0,
        1.0
      ],
      "min": [
        -1.0,
        -1.0,
        -1.0
      ],
      "type": "VEC3"
    },
    {
      "bufferView": 1,
      "byteOffset": 25808,
      "componentType": 5126,
      "count": 1104,
      "max": [
        0.875,
        1.0
      ],
      "min": [
        0.125,
        0.0
      ],
      "type": "VEC2"
    },
    {
      "bufferView": 0,
      "byteOffset": 21120,
      "componentType": 5125,
      "count": 1716,
      "type": "SCALAR"
    },
    {
      "bufferView": 2,
      "byteOffset": 103920,
      "componentType": 5126,
      "count": 617,
      "max": [
        1.0,
        1.0,
        1.0
      ],
      "min": [
        -1.0,
        -1.0,
        -1.0
      ],
      "type": "VEC3"
    },
    {
      "bufferView": 2,
      "byteOffset": 111324,
      "componentType": 5126,
      "count": 617,
      "max": [
        0.995198130607605,
        0.9951982498168945,
        0.9946200847625732
      ],
      "min": [
        -0.995198130607605,
        -0.9951982498168945,
        -0.9946200847625732
      ],
      "type": "VEC3"
    },
    {
      "bufferView": 1,
      "byteOffset": 34640,
      "componentType": 5126,
      "count": 617,
      "max": [
        1.0,
        1.0
      ],
      "min": [
        0.0,
        0.010067866183817387
      ],
      "type": "VEC2"
    },
    {
      "bufferView": 0,
      "byteOffset": 27984,
      "componentType": 5125,
      "count": 1908,
      "type": "SCALAR"
    },
    {
      "bufferView": 2,
      "byteOffset": 118728,
      "componentType": 5126,
      "count": 42024,
      "max": [
        5.310903549194336,
        2.287310838699341,
        3.880106210708618
      ],
      "min": [
        -5.305333614349365,
        -2.2938480377197266,
        -1.276997685432434
      ],
      "type": "VEC3"
    },
    {
      "bufferView": 2,
      "byteOffset": 623016,
      "componentType": 5126,
      "count": 42024,
      "max": [
        0.9999736547470093,
        0.9733515381813049,
        0.9999592304229736
      ],
      "min": [
        -0.9999736547470093,
        -0.9991222620010376,
        -0.9999504685401917
      ],
      "type": "VEC3"
    },
    {
      "bufferView": 1,
      "byteOffset": 39576,
      "componentType": 5126,
      "count": 42024,
      "max": [
        1.0000001192092896,
        1.0000001192092896
      ],
      "min": [
        0.0,
        0.0
      ],
      "type": "VEC2"
    },
    {
      "bufferView": 0,
      "byteOffset": 35616,
      "componentType": 5125,
      "count": 161280,
      "type": "SCALAR"
    },
    {
      "bufferView": 2,
      "byteOffset": 1127304,
      "componentType": 5126,
      "count": 35960,
      "max": [
        5.271102428436279,
        2.2856976985931396,
        3.8599183559417725
      ],
      "min": [
        -5.2652106285095215,
        -2.28871750831604,
        -1.2568045854568481
      ],
      "type": "VEC3"
    },
    {
      "bufferView": 2,
      "byteOffset": 1558824,
      "componentType": 5126,
      "count": 35960,
      "max": [
        0.9996594786643982,
        0.9659616947174072,
        0.999991774559021
      ],
      "min": [
        -0.9996594786643982,
        -0.988639771938324,
        -0.9999920129776001
      ],
      "type": "VEC3"
    },
    {
      "bufferView": 1,
      "byteOffset": 375768,
      "componentType": 5126,
      "count": 35960,
      "max": [
        1.0000001192092896,
        0.9000002145767212
      ],
      "min": [
        0.0,
        0.04999995231628418
      ],
      "type": "VEC2"
    },
    {
      "bufferView": 0,
      "byteOffset": 680736,
      "componentType": 5125,
      "count": 138240,
      "type": "SCALAR"
    }
  ],
  "asset": {
    "extras": {
      "author": "KDSpritzy (https://sketchfab.com/KDSpritzy)",
      "license": "CC-BY-4.0 (http://creativecommons.org/licenses/by/4.0/)",
      "source": "https://sketchfab.com/3d-models/fall-guys-sign-810b247d36084e62b0f57df12f49fe7a",
      "title": "Fall Guys Sign"
    },
    "generator": "Sketchfab-15.30.0",
    "version": "2.0"
  },
  "bufferViews": [
    {
      "buffer": 0,
      "byteLength": 1233696,
      "name": "floatBufferViews",
      "target": 34963
    },
    {
      "buffer": 0,
      "byteLength": 663448,
      "byteOffset": 1233696,
      "byteStride": 8,
      "name": "floatBufferViews",
      "target": 34962
    },
    {
      "buffer": 0,
      "byteLength": 1990344,
      "byteOffset": 1897144,
      "byteStride": 12,
      "name": "floatBufferViews",
      "target": 34962
    }
  ],
  "buffers": [
    {
      "byteLength": 3887488,
      "uri": "scene.bin"
    }
  ],
  "materials": [
    {
      "doubleSided": true,
      "name": "Material.003",
      "pbrMetallicRoughness": {
        "baseColorFactor": [
          0.0212567,
          0.014919,
          0.8,
          1.0
        ],
        "metallicFactor": 0.0,
        "roughnessFactor": 0.9836880533252914
      }
    },
    {
      "doubleSided": true,
      "name": "Material.004",
      "pbrMetallicRoughness": {
        "metallicFactor": 0.0
      }
    },
    {
      "doubleSided": true,
      "name": "Material.006",
      "pbrMetallicRoughness": {
        "baseColorFactor": [
          0.8,
          0.655178,
          0.0065349,
          1.0
        ],
        "metallicFactor": 0.0,
        "roughnessFactor": 0.870051707362918
      }
    },
    {
      "doubleSided": true,
      "name": "Material.005",
      "pbrMetallicRoughness": {
        "baseColorFactor": [
          0.0,
          0.0,
          0.0,
          1.0
        ],
        "metallicFactor": 0.0
      }
    },
    {
      "doubleSided": true,
      "name": "Material.007",
      "pbrMetallicRoughness": {
        "baseColorFactor": [
          0.0,
          0.0,
          0.0,
          1.0
        ],
        "metallicFactor": 0.0
      }
    },
    {
      "doubleSided": true,
      "name": "Material.008",
      "pbrMetallicRoughness": {
        "baseColorFactor": [
          0.799103,
          0.0036762,
          0.309469,
          1.0
        ],
        "metallicFactor": 0.0,
        "roughnessFactor": 0.9564274924106106
      }
    },
    {
      "doubleSided": true,
      "name": "Dark",
      "pbrMetallicRoughness": {
        "baseColorFactor": [
          1.0,
          0.00357296,
          0.285755,
          1.0
        ],
        "metallicFactor": 0.0,
        "roughnessFactor": 0.9472764481302487
      }
    },
    {
      "doubleSided": true,
      "name": "Light",
      "pbrMetallicRoughness": {
        "baseColorFactor": [
          1.0,
          0.0405671,
          0.22319,
          1.0
        ],
        "metallicFactor": 0.0,
        "roughnessFactor": 0.9551264971783917
      }
    }
  ],
  "meshes": [
    {
      "name": "Cube_Material.003_0",
      "primitives": [
        {
          "attributes": {
            "NORMAL": 1,
            "POSITION": 0,
            "TEXCOORD_0": 2
          },
          "indices": 3,
          "material": 0,
          "mode": 4
        }
      ]
    },
    {
      "name": "Cube_Material.004_0",
      "primitives": [
        {
          "attributes": {
            "NORMAL": 5,
            "POSITION": 4,
            "TEXCOORD_0": 6
          },
          "indices": 7,
          "material": 1,
          "mode": 4
        }
      ]
    },
    {
      "name": "Frame_Material.006_0",
      "primitives": [
        {
          "attributes": {
            "NORMAL": 9,
            "POSITION": 8,
            "TEXCOORD_0": 10
          },
          "indices": 11,
          "material": 2,
          "mode": 4
        }
      ]
    },
    {
      "name": "String_Material.005_0",
      "primitives": [
        {
          "attributes": {
            "NORMAL": 13,
            "POSITION": 12,
            "TEXCOORD_0": 14
          },
          "indices": 15,
          "material": 3,
          "mode": 4
        }
      ]
    },
    {
      "name": "Fan Box_Material.007_0",
      "primitives": [
        {
          "attributes": {
            "NORMAL": 17,
            "POSITION": 16,
            "TEXCOORD_0": 18
          },
          "indices": 19,
          "material": 4,
          "mode": 4
        }
      ]
    },
    {
      "name": "Fan Middle_Material.008_0",
      "primitives": [
        {
          "attributes": {
            "NORMAL": 21,
            "POSITION": 20,
            "TEXCOORD_0": 22
          },
          "indices": 23,
          "material": 5,
          "mode": 4
        }
      ]
    },
    {
      "name": "Fans_Dark_0",
      "primitives": [
        {
          "attributes": {
            "NORMAL": 25,
            "POSITION": 24,
            "TEXCOORD_0": 26
          },
          "indices": 27,
          "material": 6,
          "mode": 4
        }
      ]
    },
    {
      "name": "Fans_Light_0",
      "primitives": [
        {
          "attributes": {
            "NORMAL": 29,
            "POSITION": 28,
            "TEXCOORD_0": 30
          },
          "indices": 31,
          "material": 7,
          "mode": 4
        }
      ]
    }
  ],
  "nodes": [
    {
      "children": [
        1
      ],
      "matrix": [
        1.0,
        0.0,
        0.0,
        0.0,
        0.0,
        2.220446049250313e-16,
        -1.0,
        0.0,
        0.0,
        1.0,
        2.220446049250313e-16,
        0.0,
        0.0,
        0.0,
        0.0,
        1.0
      ],
      "name": "Sketchfab_model"
    },
    {
      "children": [
        2
      ],
      "matrix": [
        0.009999999776482582,
        0.0,
        0.0,
        0.0,
        0.0,
        0.0,
        0.009999999776482582,
        0.0,
        0.0,
        -0.009999999776482582,
        0.0,
        0.0,
        0.0,
        0.0,
        0.0,
        1.0
      ],
      "name": "e84a9c8b97d0491fb1e9cc60ac6601bc.fbx"
    },
    {
      "children": [
        3,
        6,
        8,
        10,
        12,
        14,
        17,
        20,
        23,
        26,
        29,
        32,
        35
      ],
      "name": "RootNode"
    },
    {
      "children": [
        4,
        5
      ],
      "matrix": [
        100.0,
        0.0,
        0.0,
        0.0,
        0.0,
        -1.629206793918314e-05,
        -99.99999999999868,
        0.0,
        0.0,
        99.99999999999868,
        -1.629206793918314e-05,
        0.0,
        0.0,
        0.0,
        0.0,
        1.0
      ],
      "name": "Cube"
    },
    {
      "mesh": 0,
      "name": "Cube_Material.003_0"
    },
    {
      "mesh": 1,
      "name": "Cube_Material.004_0"
    },
    {
      "children": [
        7
      ],
      "matrix": [
        10.380327224731445,
        0.0,
        0.0,
        0.0,
        0.0,
        -10.389303555500556,
        -0.020221369696317344,
        0.0,
        0.0,
        0.12616582763704215,
        -64.82128072120192,
        0.0,
        0.0,
        142.8195343017578,
        -0.8360698819160461,
        1.0
      ],
      "name": "Frame"
    },
    {
      "mesh": 2,
      "name": "Frame_Material.006_0"
    },
    {
      "children": [
        9
      ],
      "matrix": [
        0.839156448841095,
        0.0,
        0.0,
        0.0,
        0.0,
        0.43629172031041913,
        -0.5622849991146339,
        0.0,
        0.0,
        18.467934189707567,
        14.329755890507839,
        0.0,
        -2.1547959665799805e-16,
        116.3638916015625,
        -35.57268524169922,
        1.0
      ],
      "name": "String"
    },
    {
      "mesh": 3,
      "name": "String_Material.005_0"
    },
    {
      "children": [
        11
      ],
      "matrix": [
        2.620120747522059e-06,
        -13.456723213195538,
        4.010417469052983e-07,
        0.0,
        2.6201208244628733e-06,
        -4.010412359585313e-07,
        -13.456723213195538,
        0.0,
        44.4150848388655,
        8.647936563968611e-06,
        8.647936310018766e-06,
        0.0,
        0.0,
        120.38082885742188,
        -0.2469864934682846,
        1.0
      ],
      "name": "Fan Box"
    },
    {
      "mesh": 4,
      "name": "Fan Box_Material.007_0"
    },
    {
      "children": [
        13
      ],
      "matrix": [
        5.266510486602783,
        0.0,
        0.0,
        0.0,
        0.0,
        -1.4858404411905874e-06,
        -5.266510486602574,
        0.0,
        0.0,
        5.355977058410431,
        -1.5110816423360069e-06,
        0.0,
        0.0,
        167.0753936767578,
        -0.2469864934682846,
        1.0
      ],
      "name": "Fan Middle"
    },
    {
      "mesh": 5,
      "name": "Fan Middle_Material.008_0"
    },
    {
      "children": [
        15,
        16
      ],
      "matrix": [
        -8.594940742133306e-07,
        -0.13196998843262722,
        -18.32318847078881,
        -0.0,
        2.6151059694020637e-07,
        -2.190549063489026,
        0.015777097694017184,
        -0.0,
        37.77109527587861,
        4.496168527117618e-06,
        -1.8041287950153404e-06,
        -0.0,
        -48.87245178222656,
        170.27001953125,
        -0.5523790121078491,
        1.0
      ],
      "name": "Fans"
    },
    {
      "mesh": 6,
      "name": "Fans_Dark_0"
    },
    {
      "mesh": 7,
      "name": "Fans_Light_0"
    },
    {
      "children": [
        18
      ],
      "matrix": [
        100.0,
        0.0,
        0.0,
        0.0,
        0.0,
        99.99999999999972,
        -7.5497901264043296e-06,
        0.0,
        0.0,
        7.5497901264043296e-06,
        99.99999999999972,
        0.0,
        0.0,
        468.2794494628906,
        -0.8360698819160461,
        1.0
      ],
      "name": "Sun"
    },
    {
      "children": [
        19
      ],
      "matrix": [
        1.0,
        0.0,
        0.0,
        0.0,
        0.0,
        2.220446049250313e-16,
        1.0,
        0.0,
        0.0,
        -1.0,
        2.220446049250313e-16,
        0.0,
        0.0,
        0.0,
        0.0,
        1.0
      ],
      "name": "Object_18"
    },
    {
      "name": "Object_19"
    },
    {
      "children": [
        21
      ],
      "matrix": [
        73.59124514480548,
        2.441802826602668e-06,
        67.70767045200371,
        0.0,
        61.85404745388507,
        40.67361987031644,
        -67.22896295658242,
        0.0,
        -27.539162144293282,
        91.35456554899154,
        29.932221797677016,
        0.0,
        268.9399719238281,
        145.0492706298828,
        -289.55145263671875,
        1.0
      ],
      "name": "Area"
    },
    {
      "children": [
        22
      ],
      "matrix": [
        1.0,
        0.0,
        0.0,
        0.0,
        0.0,
        2.220446049250313e-16,
        1.0,
        0.0,
        0.0,
        -1.0,
        2.220446049250313e-16,
        0.0,
        0.0,
        0.0,
        0.0,
        1.0
      ],
      "name": "Object_21"
    },
    {
      "name": "Object_22"
    },
    {
      "children": [
        24
      ],
      "matrix": [
        73.59126720676099,
        -2.4418019883842845e-06,
        67.70764647292877,
        -0.0,
        -61.854026423279485,
        40.673616966471606,
        67.22898406262733,
        -0.0,
        27.539150425010426,
        91.35456684186485,
        -29.9322286340977,
        -0.0,
        -268.9399719238281,
        145.0492706298828,
        295.068603515625,
        1.0
      ],
      "name": "Area.001"
    },
    {
      "children": [
        25
      ],
      "matrix": [
        1.0,
        0.0,
        0.0,
        0.0,
        0.0,
        2.220446049250313e-16,
        1.0,
        0.0,
        0.0,
        -1.0,
        2.220446049250313e-16,
        0.0,
        0.0,
        0.0,
        0.0,
        1.0
      ],
      "name": "Object_24"
    },
    {
      "name": "Object_25"
    },
    {
      "children": [
        27
      ],
      "matrix": [
        -67.58267843536876,
        6.593366902452047e-06,
        73.70604843227933,
        0.0,
        67.3338271014241,
        40.673665700429865,
        61.739846504224495,
        0.0,
        -29.978949956819818,
        91.35455211392181,
        -27.48835923495989,
        0.0,
        292.76605224609375,
        145.0492706298828,
        271.20208740234375,
        1.0
      ],
      "name": "Area.002"
    },
    {
      "children": [
        28
      ],
      "matrix": [
        1.0,
        0.0,
        0.0,
        0.0,
        0.0,
        2.220446049250313e-16,
        1.0,
        0.0,
        0.0,
        -1.0,
        2.220446049250313e-16,
        0.0,
        0.0,
        0.0,
        0.0,
        1.0
      ],
      "name": "Object_27"
    },
    {
      "name": "Object_28"
    },
    {
      "children": [
        30
      ],
      "matrix": [
        -67.58268517144931,
        -6.593367074536616e-06,
        73.70604225582,
        -0.0,
        -67.33382241187367,
        40.67366279658877,
        -61.73985353169906,
        -0.0,
        29.978945304320114,
        91.35455340679526,
        27.48836001227685,
        -0.0,
        -292.76605224609375,
        145.0492706298828,
        -265.6849365234375,
        1.0
      ],
      "name": "Area.003"
    },
    {
      "children": [
        31
      ],
      "matrix": [
        1.0,
        0.0,
        0.0,
        0.0,
        0.0,
        2.220446049250313e-16,
        1.0,
        0.0,
        0.0,
        -1.0,
        2.220446049250313e-16,
        0.0,
        0.0,
        0.0,
        0.0,
        1.0
      ],
      "name": "Object_30"
    },
    {
      "name": "Object_31"
    },
    {
      "children": [
        33
      ],
      "matrix": [
        -0.30831486823856835,
        99.99952470857984,
        -1.2333329379998732e-05,
        0.0,
        -99.99952470857727,
        -0.3083148682417436,
        -2.579779732059204e-05,
        0.0,
        -2.583570019410255e-05,
        1.2253732315924612e-05,
        99.99999999999591,
        0.0,
        -465.40484619140625,
        -27.493358612060547,
        -0.8360698819160461,
        1.0
      ],
      "name": "Area.004"
    },
    {
      "children": [
        34
      ],
      "matrix": [
        1.0,
        0.0,
        0.0,
        0.0,
        0.0,
        2.220446049250313e-16,
        1.0,
        0.0,
        0.0,
        -1.0,
        2.220446049250313e-16,
        0.0,
        0.0,
        0.0,
        0.0,
        1.0
      ],
      "name": "Object_33"
    },
    {
      "name": "Object_34"
    },
    {
      "children": [
        36
      ],
      "matrix": [
        99.5220256428412,
        -9.703257958834358,
        -1.10145219141675,
        0.0,
        9.714236565929271,
        99.52210538657958,
        0.9912726591919123,
        0.0,
        1.0000028201160895,
        -1.093532468466084,
        99.98902793296439,
        0.0,
        -829.460693359375,
        127.53802490234375,
        0.18058829009532928,
        1.0
      ],
      "name": "Camera"
    },
    {
      "name": "Object_36"
    }
  ],
  "scene": 0,
  "scenes": [
    {
      "name": "Sketchfab_Scene",
      "nodes": [
        0
      ]
    }
  ]
}
